<?xml version="1.0" encoding="UTF-8"?>
<!DOCTYPE svg PUBLIC "-//W3C//DTD SVG 1.1//EN" "http://www.w3.org/Graphics/SVG/1.1/DTD/svg11.dtd">
<svg xmlns="http://www.w3.org/2000/svg" version="1.1" width="1000px" height="588px" style="shape-rendering:geometricPrecision; text-rendering:geometricPrecision; image-rendering:optimizeQuality; fill-rule:evenodd; clip-rule:evenodd" xmlns:xlink="http://www.w3.org/1999/xlink">
<g><path style="opacity:0.975" fill="#8abd53" d="M 479.5,-0.5 C 492.833,-0.5 506.167,-0.5 519.5,-0.5C 596.901,11.3955 648.401,54.3955 674,128.5C 692.323,199.832 675.823,261.666 624.5,314C 566.184,364.054 500.85,375.721 428.5,349C 362.917,318.712 326.083,267.546 318,195.5C 315.183,116.764 347.683,57.9309 415.5,19C 435.875,8.92733 457.208,2.42733 479.5,-0.5 Z M 488.5,13.5 C 556.112,12.215 607.945,39.8817 644,96.5C 670.216,144.614 673.549,194.281 654,245.5C 623.228,310.654 571.728,344.987 499.5,348.5C 428.283,344.994 377.116,311.327 346,247.5C 321.403,184.096 330.069,125.762 372,72.5C 403.099,37.534 441.932,17.8673 488.5,13.5 Z M 469.5,159.5 C 490.169,159.333 510.836,159.5 531.5,160C 532.667,161.167 533.833,162.333 535,163.5C 536.642,192.105 536.975,220.772 536,249.5C 535.31,252.196 533.81,254.363 531.5,256C 510.833,256.667 490.167,256.667 469.5,256C 468.333,254.833 467.167,253.667 466,252.5C 465.333,222.833 465.333,193.167 466,163.5C 467.376,162.295 468.542,160.962 469.5,159.5 Z M 495.5,172.5 C 497.989,172.298 500.323,172.798 502.5,174C 505.683,177.015 508.683,180.182 511.5,183.5C 508.85,186.651 506.016,189.651 503,192.5C 498.965,188.8 495.298,184.8 492,180.5C 491.279,176.946 492.446,174.28 495.5,172.5 Z M 478.5,192.5 C 481.97,191.875 484.804,192.875 487,195.5C 487.499,201.157 487.666,206.824 487.5,212.5C 483.5,212.5 479.5,212.5 475.5,212.5C 475.334,206.824 475.501,201.157 476,195.5C 477.045,194.627 477.878,193.627 478.5,192.5 Z M 518.5,217.5 C 525.327,216.825 528.16,219.825 527,226.5C 523.333,230.167 519.667,233.833 516,237.5C 513.167,234.667 510.333,231.833 507.5,229C 511.37,225.298 515.037,221.464 518.5,217.5 Z"/></g>
<g><path style="opacity:0.994" fill="#89bd52" d="M 472.5,83.5 C 490.5,83.5 508.5,83.5 526.5,83.5C 526.5,93.1667 526.5,102.833 526.5,112.5C 508.5,112.5 490.5,112.5 472.5,112.5C 472.5,102.833 472.5,93.1667 472.5,83.5 Z"/></g>
<g><path style="opacity:0.967" fill="#8abe52" d="M 478.5,118.5 C 492.837,118.333 507.171,118.5 521.5,119C 522.603,122.039 524.103,124.873 526,127.5C 531.365,133.199 537.031,138.533 543,143.5C 545.838,147.172 548.171,151.172 550,155.5C 551.647,192.107 551.981,228.773 551,265.5C 550.067,270.419 547.567,274.252 543.5,277C 517.229,278.64 490.896,278.973 464.5,278C 457.801,277.295 452.635,274.129 449,268.5C 447.352,231.227 447.019,193.893 448,156.5C 449.139,152.888 450.806,149.554 453,146.5C 459.109,140.122 465.776,134.455 473,129.5C 475.372,126.09 477.205,122.423 478.5,118.5 Z M 469.5,159.5 C 468.542,160.962 467.376,162.295 466,163.5C 465.333,193.167 465.333,222.833 466,252.5C 467.167,253.667 468.333,254.833 469.5,256C 490.167,256.667 510.833,256.667 531.5,256C 533.81,254.363 535.31,252.196 536,249.5C 536.975,220.772 536.642,192.105 535,163.5C 533.833,162.333 532.667,161.167 531.5,160C 510.836,159.5 490.169,159.333 469.5,159.5 Z M 495.5,172.5 C 492.446,174.28 491.279,176.946 492,180.5C 495.298,184.8 498.965,188.8 503,192.5C 506.016,189.651 508.85,186.651 511.5,183.5C 508.683,180.182 505.683,177.015 502.5,174C 500.323,172.798 497.989,172.298 495.5,172.5 Z M 478.5,192.5 C 477.878,193.627 477.045,194.627 476,195.5C 475.501,201.157 475.334,206.824 475.5,212.5C 479.5,212.5 483.5,212.5 487.5,212.5C 487.666,206.824 487.499,201.157 487,195.5C 484.804,192.875 481.97,191.875 478.5,192.5 Z M 518.5,217.5 C 515.037,221.464 511.37,225.298 507.5,229C 510.333,231.833 513.167,234.667 516,237.5C 519.667,233.833 523.333,230.167 527,226.5C 528.16,219.825 525.327,216.825 518.5,217.5 Z"/></g>
<g><path style="opacity:0.949" fill="#8abd52" d="M 493.5,168.5 C 497.308,168.163 500.974,168.663 504.5,170C 511.667,177.167 518.833,184.333 526,191.5C 530.681,200.794 528.015,206.794 518,209.5C 515.755,208.863 513.588,208.03 511.5,207C 504,199.5 496.5,192 489,184.5C 486.172,177.851 487.672,172.518 493.5,168.5 Z M 495.5,172.5 C 492.446,174.28 491.279,176.946 492,180.5C 495.298,184.8 498.965,188.8 503,192.5C 506.016,189.651 508.85,186.651 511.5,183.5C 508.683,180.182 505.683,177.015 502.5,174C 500.323,172.798 497.989,172.298 495.5,172.5 Z"/></g>
<g><path style="opacity:0.974" fill="#8abe52" d="M 477.5,188.5 C 483.07,187.416 487.57,189.083 491,193.5C 491.667,206.167 491.667,218.833 491,231.5C 486.66,237.864 481.16,239.031 474.5,235C 473.299,234.097 472.465,232.931 472,231.5C 471.333,219.167 471.333,206.833 472,194.5C 473.36,191.977 475.193,189.977 477.5,188.5 Z M 478.5,192.5 C 477.878,193.627 477.045,194.627 476,195.5C 475.501,201.157 475.334,206.824 475.5,212.5C 479.5,212.5 483.5,212.5 487.5,212.5C 487.666,206.824 487.499,201.157 487,195.5C 484.804,192.875 481.97,191.875 478.5,192.5 Z"/></g>
<g><path style="opacity:0.966" fill="#8cbf52" d="M 520.5,212.5 C 530.675,214.187 533.842,219.854 530,229.5C 522.5,237 515,244.5 507.5,252C 495.505,255.338 490.338,250.838 492,238.5C 498.802,230.697 505.969,223.197 513.5,216C 515.713,214.384 518.047,213.217 520.5,212.5 Z M 518.5,217.5 C 515.037,221.464 511.37,225.298 507.5,229C 510.333,231.833 513.167,234.667 516,237.5C 519.667,233.833 523.333,230.167 527,226.5C 528.16,219.825 525.327,216.825 518.5,217.5 Z"/></g>
<g><path style="opacity:0.969" fill="#08692d" d="M -0.5,575.5 C -0.5,575.167 -0.5,574.833 -0.5,574.5C 4.12395,573.553 8.62395,572.219 13,570.5C 29.3333,529.5 45.6667,488.5 62,447.5C 62.7739,445.061 64.2739,443.227 66.5,442C 71.01,439.484 75.51,436.984 80,434.5C 99.4227,479.413 118.089,524.746 136,570.5C 139.952,571.988 143.952,573.321 148,574.5C 148.499,578.152 148.665,581.818 148.5,585.5C 129.5,585.5 110.5,585.5 91.5,585.5C 91.1774,581.774 91.5108,578.107 92.5,574.5C 97.1106,573.144 101.777,571.977 106.5,571C 102.005,561.012 98.0049,550.846 94.5,540.5C 76.8208,540.167 59.1541,540.5 41.5,541.5C 37.9267,551.389 34.26,561.222 30.5,571C 35.8987,572.08 41.2321,573.413 46.5,575C 45.5442,578.394 45.2108,581.894 45.5,585.5C 30.5,585.5 15.5,585.5 0.5,585.5C 0.812775,581.958 0.479442,578.625 -0.5,575.5 Z M 65.5,473.5 C 66.7498,473.577 67.5831,474.244 68,475.5C 74.557,492.281 81.3903,508.947 88.5,525.5C 74.5119,526.666 60.5119,526.833 46.5,526C 53.2619,508.645 59.5952,491.145 65.5,473.5 Z"/></g>
<g><path style="opacity:0.968" fill="#09692e" d="M 800.5,434.5 C 802.411,434.574 803.578,435.574 804,437.5C 822.13,482.086 839.963,526.753 857.5,571.5C 861.649,571.871 865.649,572.871 869.5,574.5C 870.079,578.096 870.079,581.762 869.5,585.5C 850.83,585.667 832.164,585.5 813.5,585C 812.209,581.545 812.209,578.045 813.5,574.5C 818.257,573.477 822.924,572.144 827.5,570.5C 823.5,560.833 819.5,551.167 815.5,541.5C 797.846,540.5 780.179,540.167 762.5,540.5C 759.376,550.539 756.043,560.539 752.5,570.5C 757.076,572.144 761.743,573.477 766.5,574.5C 767.489,578.107 767.823,581.774 767.5,585.5C 734.167,585.5 700.833,585.5 667.5,585.5C 667.276,581.821 666.942,578.154 666.5,574.5C 671.173,573.777 675.84,572.943 680.5,572C 666.584,554.08 651.918,536.747 636.5,520C 634.527,519.505 632.527,519.338 630.5,519.5C 630.333,536.17 630.5,552.837 631,569.5C 631.519,570.516 632.353,571.182 633.5,571.5C 637.216,572.346 640.883,573.346 644.5,574.5C 645.586,578.155 645.586,581.822 644.5,585.5C 625.833,585.5 607.167,585.5 588.5,585.5C 587.414,581.822 587.414,578.155 588.5,574.5C 593.417,573.396 598.251,572.063 603,570.5C 603.667,531.833 603.667,493.167 603,454.5C 598.029,452.472 592.862,451.138 587.5,450.5C 587.5,446.5 587.5,442.5 587.5,438.5C 607.167,438.5 626.833,438.5 646.5,438.5C 646.5,442.5 646.5,446.5 646.5,450.5C 641.473,451.372 636.473,452.372 631.5,453.5C 630.541,471.132 630.207,488.799 630.5,506.5C 633.216,506.322 635.883,505.822 638.5,505C 655.167,487.667 671.833,470.333 688.5,453C 683.416,452.15 678.416,450.984 673.5,449.5C 674.426,445.906 674.759,442.24 674.5,438.5C 691.833,438.5 709.167,438.5 726.5,438.5C 726.824,442.555 726.491,446.555 725.5,450.5C 720.441,451.454 715.441,452.62 710.5,454C 693.167,470.333 675.833,486.667 658.5,503C 678.5,525.667 698.5,548.333 718.5,571C 720.98,571.96 723.48,572.793 726,573.5C 728.687,572.287 731.52,571.62 734.5,571.5C 750.732,529.197 767.398,487.03 784.5,445C 789.698,441.238 795.031,437.738 800.5,434.5 Z M 787.5,472.5 C 795.403,490.195 802.736,508.195 809.5,526.5C 795.833,526.5 782.167,526.5 768.5,526.5C 774.83,508.512 781.163,490.512 787.5,472.5 Z"/></g>
<g><path style="opacity:0.958" fill="#09692d" d="M 999.5,478.5 C 999.5,479.167 999.5,479.833 999.5,480.5C 994.556,480.822 989.723,480.822 985,480.5C 981.888,471.123 978.388,461.956 974.5,453C 964.506,452.5 954.506,452.334 944.5,452.5C 944.5,492.167 944.5,531.833 944.5,571.5C 951.842,572.073 959.176,572.739 966.5,573.5C 965.979,577.481 965.646,581.481 965.5,585.5C 942.5,585.5 919.5,585.5 896.5,585.5C 896.759,581.76 896.426,578.094 895.5,574.5C 902.759,572.939 910.093,571.939 917.5,571.5C 917.5,531.833 917.5,492.167 917.5,452.5C 907.494,452.334 897.494,452.5 887.5,453C 883.612,461.956 880.112,471.123 877,480.5C 872.564,481.474 868.064,481.474 863.5,480.5C 864.757,466.113 866.423,451.78 868.5,437.5C 910.167,438.833 951.833,438.833 993.5,437.5C 994.958,451.379 996.958,465.046 999.5,478.5 Z"/></g>
<g><path style="opacity:0.967" fill="#08692d" d="M 266.5,587.5 C 265.5,587.5 264.5,587.5 263.5,587.5C 256.345,586.671 249.011,586.171 241.5,586C 213.835,585.5 186.169,585.333 158.5,585.5C 158.577,581.785 158.244,578.119 157.5,574.5C 162.782,573.244 168.115,572.244 173.5,571.5C 174.809,532.151 174.809,492.818 173.5,453.5C 168.167,452.5 162.833,451.5 157.5,450.5C 158.162,446.534 158.495,442.534 158.5,438.5C 179.833,438.5 201.167,438.5 222.5,438.5C 222.207,442.437 222.54,446.27 223.5,450C 216.628,451.812 209.628,452.979 202.5,453.5C 200.214,491.794 199.88,530.128 201.5,568.5C 217.856,569.984 234.189,569.817 250.5,568C 254.96,560.247 259.294,552.414 263.5,544.5C 264.333,544.167 265.167,543.833 266,543.5C 269.811,544.362 273.644,545.029 277.5,545.5C 274.236,559.621 270.57,573.621 266.5,587.5 Z"/></g>
<g><path style="opacity:0.968" fill="#08692d" d="M 288.5,438.5 C 309.836,438.333 331.169,438.5 352.5,439C 393.231,442.376 407.731,463.543 396,502.5C 383.605,520.282 366.438,528.948 344.5,528.5C 339.82,528.249 335.154,527.916 330.5,527.5C 330.425,541.846 330.758,556.179 331.5,570.5C 338.45,571.825 345.45,572.825 352.5,573.5C 351.979,577.481 351.646,581.481 351.5,585.5C 330.5,585.5 309.5,585.5 288.5,585.5C 288.177,581.774 288.511,578.107 289.5,574.5C 294.046,573.24 298.546,571.906 303,570.5C 304.805,531.507 304.971,492.507 303.5,453.5C 298.165,452.5 292.832,451.5 287.5,450.5C 287.833,446.5 288.167,442.5 288.5,438.5 Z M 330.5,451.5 C 364.04,449.206 377.54,464.54 371,497.5C 367.563,505.938 361.396,511.105 352.5,513C 345.139,513.683 337.805,513.517 330.5,512.5C 330.5,492.167 330.5,471.833 330.5,451.5 Z"/></g>
<g><path style="opacity:0.964" fill="#08692d" d="M 508.5,587.5 C 499.167,587.5 489.833,587.5 480.5,587.5C 454.94,582.104 440.106,566.437 436,540.5C 435.621,511.496 435.121,482.496 434.5,453.5C 429.168,452.5 423.835,451.5 418.5,450.5C 418.395,446.452 418.728,442.452 419.5,438.5C 438.833,438.5 458.167,438.5 477.5,438.5C 477.5,442.5 477.5,446.5 477.5,450.5C 472.532,451.659 467.532,452.659 462.5,453.5C 461.484,478.825 461.317,504.159 462,529.5C 464.28,559.11 480.113,571.61 509.5,567C 522.255,563.24 529.755,554.74 532,541.5C 533.825,512.187 533.992,482.854 532.5,453.5C 526.5,452.5 520.5,451.5 514.5,450.5C 515.162,446.534 515.495,442.534 515.5,438.5C 532.833,438.5 550.167,438.5 567.5,438.5C 567.5,442.5 567.5,446.5 567.5,450.5C 562.532,451.659 557.532,452.659 552.5,453.5C 551.729,480.819 551.229,508.153 551,535.5C 549.309,563.295 535.143,580.628 508.5,587.5 Z"/></g>
</svg>
