<?xml version="1.0" encoding="UTF-8"?>
<!DOCTYPE svg PUBLIC "-//W3C//DTD SVG 1.1//EN" "http://www.w3.org/Graphics/SVG/1.1/DTD/svg11.dtd">
<svg xmlns="http://www.w3.org/2000/svg" version="1.1" width="1000px" height="1000px" style="shape-rendering:geometricPrecision; text-rendering:geometricPrecision; image-rendering:optimizeQuality; fill-rule:evenodd; clip-rule:evenodd" xmlns:xlink="http://www.w3.org/1999/xlink">
<g><path style="opacity:0.952" fill="#09692d" d="M 518.5,-0.5 C 522.833,-0.5 527.167,-0.5 531.5,-0.5C 531.232,2.1194 531.565,4.6194 532.5,7C 529.317,8.46638 525.984,9.63305 522.5,10.5C 522.04,31.8235 521.873,53.1568 522,74.5C 518.38,91.7873 507.88,101.954 490.5,105C 462.119,108.581 445.952,96.4143 442,68.5C 441.214,50.1607 440.381,31.8274 439.5,13.5C 436.126,13.3256 432.793,12.8256 429.5,12C 428.556,9.28086 428.223,6.44753 428.5,3.5C 442.198,3.13769 455.865,2.47102 469.5,1.5C 469.5,4.5 469.5,7.5 469.5,10.5C 466.211,11.3739 462.877,12.0405 459.5,12.5C 459.333,24.8378 459.5,37.1712 460,49.5C 460.006,58.6247 461.006,67.6247 463,76.5C 469.694,89.5913 480.194,94.0913 494.5,90C 502.203,87.1363 507.037,81.6363 509,73.5C 509.5,69.5 510,65.5 510.5,61.5C 509.749,45.8159 508.749,30.1492 507.5,14.5C 507.291,13.0055 506.624,11.8388 505.5,11C 501.779,10.3802 498.112,9.54684 494.5,8.5C 495.393,5.91585 495.726,3.24919 495.5,0.5C 503.352,0.825363 511.018,0.49203 518.5,-0.5 Z"/></g>
<g><path style="opacity:0.953" fill="#09692d" d="M 653.5,24.5 C 666.378,29.5148 679.045,35.0148 691.5,41C 690.331,43.0065 689.665,45.1732 689.5,47.5C 685.239,46.9492 681.072,46.9492 677,47.5C 671.611,58.1739 667.111,69.1739 663.5,80.5C 666.607,80.6488 669.607,80.1488 672.5,79C 686.084,72.8056 699.75,66.8056 713.5,61C 710.833,59 708.167,57 705.5,55C 706.874,52.4171 708.374,49.9171 710,47.5C 720.401,52.1906 730.901,56.6906 741.5,61C 741.957,61.414 742.291,61.914 742.5,62.5C 741.423,64.7294 740.756,67.0628 740.5,69.5C 736.193,68.5024 731.86,68.0024 727.5,68C 712.075,73.2222 697.075,79.2222 682.5,86C 688.803,105.241 695.303,124.408 702,143.5C 704.659,145.898 707.159,148.398 709.5,151C 709.077,153.633 707.91,155.799 706,157.5C 692.536,152.1 679.203,146.434 666,140.5C 666.1,137.694 666.933,135.028 668.5,132.5C 671.467,134.004 674.467,134.338 677.5,133.5C 672.901,119.536 668.401,105.536 664,91.5C 661.819,87.7098 659.819,87.7098 658,91.5C 654.069,101.127 650.235,110.794 646.5,120.5C 648.831,122.66 651.331,124.66 654,126.5C 654.21,129.269 653.377,131.769 651.5,134C 638.907,129.878 626.574,124.878 614.5,119C 615.477,116.398 616.644,113.898 618,111.5C 621.465,112.888 624.965,113.221 628.5,112.5C 638.821,89.3704 648.654,66.037 658,42.5C 658.798,40.7412 658.631,39.0745 657.5,37.5C 654.684,35.775 652.35,33.6083 650.5,31C 651.377,28.7473 652.377,26.5806 653.5,24.5 Z"/></g>
<g><path style="opacity:0.956" fill="#09692d" d="M 296.5,41.5 C 314.934,42.9346 324.6,52.9346 325.5,71.5C 324.62,85.0979 318.287,95.2645 306.5,102C 301.945,104.445 297.278,106.612 292.5,108.5C 296.658,117.485 301.325,126.152 306.5,134.5C 310.833,133.167 315.167,131.833 319.5,130.5C 321.75,133.273 322.416,136.273 321.5,139.5C 308.924,145.372 296.424,151.372 284,157.5C 282.374,155.083 280.874,152.583 279.5,150C 282.483,148.016 285.15,145.683 287.5,143C 277.105,118.711 265.772,94.878 253.5,71.5C 250.175,70.8153 246.842,71.1486 243.5,72.5C 241.123,70.772 239.456,68.4386 238.5,65.5C 251.68,58.7437 265.013,52.2437 278.5,46C 284.479,43.8385 290.479,42.3385 296.5,41.5 Z M 284.5,54.5 C 298.962,56.13 306.962,64.2967 308.5,79C 308.172,84.9878 305.505,89.6545 300.5,93C 296.515,95.2427 292.348,97.076 288,98.5C 281.758,86.5159 275.924,74.3492 270.5,62C 270.645,61.228 270.978,60.5613 271.5,60C 275.741,57.6512 280.075,55.8179 284.5,54.5 Z"/></g>
<g><path style="opacity:0.955" fill="#09692d" d="M 856.5,155.5 C 860.188,156.172 863.855,157.005 867.5,158C 869.286,158.196 870.619,159.029 871.5,160.5C 857.559,191.383 843.892,222.383 830.5,253.5C 832.309,256.419 833.476,259.419 834,262.5C 832.05,264.388 829.883,265.554 827.5,266C 818.636,257.47 810.136,248.637 802,239.5C 801.973,236.329 803.473,233.996 806.5,232.5C 809.619,234.726 812.952,236.393 816.5,237.5C 818.478,230.737 821.144,224.237 824.5,218C 816.864,209.363 808.864,201.03 800.5,193C 799.167,192.333 797.833,192.333 796.5,193C 790.802,195.849 785.136,198.682 779.5,201.5C 781.299,204.267 782.966,207.101 784.5,210C 783.171,212.509 781.171,214.342 778.5,215.5C 771.875,208.374 765.042,201.374 758,194.5C 757.94,191.352 759.44,189.019 762.5,187.5C 765.624,189.577 768.958,190.743 772.5,191C 800.705,179.39 828.705,167.557 856.5,155.5 Z M 843.5,171.5 C 844.043,171.56 844.376,171.893 844.5,172.5C 839.43,184.208 834.264,195.875 829,207.5C 822.135,200.969 815.635,194.136 809.5,187C 821.043,182.058 832.376,176.891 843.5,171.5 Z"/></g>
<g><path style="opacity:0.953" fill="#09692d" d="M 118.5,158.5 C 120.803,160.325 123.136,162.158 125.5,164C 123.028,167.971 120.362,171.805 117.5,175.5C 118,176.5 118.5,177.5 119,178.5C 137.065,196.568 155.732,213.901 175,230.5C 183.07,223.1 190.404,215.1 197,206.5C 195.907,200.043 194.074,193.71 191.5,187.5C 193.77,185.025 196.437,183.025 199.5,181.5C 205.083,189.664 210.416,197.997 215.5,206.5C 198.008,223.826 181.008,241.66 164.5,260C 161.148,260.01 158.815,258.344 157.5,255C 159.47,251.901 160.97,248.735 162,245.5C 143.221,226.381 123.554,208.381 103,191.5C 100,193.167 97,194.833 94,196.5C 91.704,195.372 89.8707,193.705 88.5,191.5C 98.522,180.48 108.522,169.48 118.5,158.5 Z"/></g>
<g><path style="opacity:0.998" fill="#8abe53" d="M 476.5,206.5 C 577.112,201.746 660.279,237.08 726,312.5C 790.613,395.576 808.28,487.909 779,589.5C 746.992,682.175 684.825,745.008 592.5,778C 486.832,809.333 391.499,790.333 306.5,721C 223.16,643.308 191.993,548.141 213,435.5C 236.59,340.765 292.423,272.599 380.5,231C 411.335,217.792 443.335,209.625 476.5,206.5 Z"/></g>
<g><path style="opacity:0.953" fill="#09692d" d="M 957.5,284.5 C 959.124,284.36 960.29,285.027 961,286.5C 970.76,312.946 981.593,338.946 993.5,364.5C 985.231,369.885 976.731,374.885 968,379.5C 966.054,377.119 964.221,374.619 962.5,372C 967.532,366.633 972.865,361.633 978.5,357C 976.146,351.124 973.646,345.29 971,339.5C 970.439,338.978 969.772,338.645 969,338.5C 944.589,348.082 920.422,358.248 896.5,369C 895.941,369.725 895.608,370.558 895.5,371.5C 896.661,375.811 897.661,380.145 898.5,384.5C 896.063,384.756 893.729,385.423 891.5,386.5C 884.258,372.504 877.924,358.004 872.5,343C 874.464,341.013 876.797,339.513 879.5,338.5C 882.083,341.997 884.416,345.664 886.5,349.5C 887.723,350.614 889.056,350.781 890.5,350C 915.053,340.718 939.053,330.384 962.5,319C 960.218,312.816 957.551,306.816 954.5,301C 947.508,301.165 940.508,301.165 933.5,301C 931.841,298.07 931.508,295.07 932.5,292C 941.036,289.762 949.369,287.262 957.5,284.5 Z"/></g>
<g><path style="opacity:1" fill="#fefefe" d="M 443.5,293.5 C 480.835,293.333 518.168,293.5 555.5,294C 556.659,313.427 556.826,332.927 556,352.5C 518.571,353.663 481.071,353.829 443.5,353C 442.172,333.167 442.172,313.333 443.5,293.5 Z"/></g>
<g><path style="opacity:0.951" fill="#09692d" d="M 113.5,320.5 C 116.262,321.38 118.929,322.546 121.5,324C 117.005,335.483 112.505,346.983 108,358.5C 107.612,359.428 106.945,360.095 106,360.5C 104.128,359.932 102.295,359.265 100.5,358.5C 99.7068,354.88 99.7068,351.213 100.5,347.5C 93.1365,347.169 85.8032,347.503 78.5,348.5C 73.5789,359.262 69.2455,370.262 65.5,381.5C 70.5118,386.51 75.8451,391.177 81.5,395.5C 83.8574,392.644 86.3574,389.978 89,387.5C 91.6053,388.215 93.772,389.548 95.5,391.5C 91.902,400.461 88.402,409.461 85,418.5C 82.4622,419.399 79.9622,419.066 77.5,417.5C 76.7718,414.198 76.6051,410.865 77,407.5C 53.6992,386.534 30.6992,365.201 8,343.5C 7.05678,338.84 6.22344,334.173 5.5,329.5C 39.855,329.226 74.1883,328.392 108.5,327C 110.539,325.074 112.206,322.907 113.5,320.5 Z M 53.5,347.5 C 58.1785,347.334 62.8452,347.501 67.5,348C 64.2376,356.69 60.5709,365.19 56.5,373.5C 46.6867,365.521 37.02,357.354 27.5,349C 36.343,348.83 45.0097,348.33 53.5,347.5 Z"/></g>
<g><path style="opacity:1" fill="#fefefd" d="M 456.5,367.5 C 486.169,367.333 515.835,367.5 545.5,368C 548.076,375.318 551.576,382.151 556,388.5C 566.701,398.869 577.701,408.869 589,418.5C 597.738,429.306 604.405,441.306 609,454.5C 609.667,526.167 609.667,597.833 609,669.5C 608.53,681.257 604.363,691.424 596.5,700C 593.205,702.434 589.538,704.101 585.5,705C 531.5,705.667 477.5,705.667 423.5,705C 404.291,701.791 393.124,690.624 390,671.5C 389.333,598.5 389.333,525.5 390,452.5C 392.386,443.063 396.386,434.397 402,426.5C 412.965,414.785 425.132,404.619 438.5,396C 446.898,388.043 452.898,378.543 456.5,367.5 Z"/></g>
<g><path style="opacity:1" fill="#8abe54" d="M 436.5,452.5 C 479.835,452.333 523.168,452.5 566.5,453C 571.57,455.614 575.403,459.448 578,464.5C 578.667,526.167 578.667,587.833 578,649.5C 575.203,653.299 572.036,656.799 568.5,660C 524.584,661.656 480.584,661.989 436.5,661C 433.667,658.167 430.833,655.333 428,652.5C 426.341,589.249 426.008,525.916 427,462.5C 430.371,459.297 433.538,455.964 436.5,452.5 Z"/></g>
<g><path style="opacity:1" fill="#fcfdfb" d="M 490.5,473.5 C 497.43,472.655 503.763,474.155 509.5,478C 525,493.5 540.5,509 556,524.5C 562.108,536.14 560.274,546.306 550.5,555C 541.405,560.064 532.738,559.397 524.5,553C 508.638,537.471 493.138,521.638 478,505.5C 472.072,490.77 476.239,480.104 490.5,473.5 Z"/></g>
<g><path style="opacity:1" fill="#8bbf55" d="M 490.5,480.5 C 495.777,479.931 500.777,480.765 505.5,483C 513.015,490.348 520.348,497.848 527.5,505.5C 521.348,512.152 515.015,518.652 508.5,525C 507.5,525.667 506.5,525.667 505.5,525C 497.263,517.433 489.763,509.267 483,500.5C 480.164,491.838 482.664,485.172 490.5,480.5 Z"/></g>
<g><path style="opacity:0.942" fill="#09692d" d="M 30.5,512.5 C 43.5164,512.676 48.3498,519.009 45,531.5C 39.3753,538.217 32.8753,539.217 25.5,534.5C 19.0658,525.289 20.7325,517.956 30.5,512.5 Z"/></g>
<g><path style="opacity:0.953" fill="#09692d" d="M 949.5,512.5 C 961.771,512.76 966.604,518.76 964,530.5C 958.932,537.868 952.432,539.368 944.5,535C 939.536,528.994 939.202,522.661 943.5,516C 945.432,514.541 947.432,513.375 949.5,512.5 Z"/></g>
<g><path style="opacity:1" fill="#fdfefd" d="M 457.5,515.5 C 469.558,515.084 477.725,520.418 482,531.5C 482.667,555.167 482.667,578.833 482,602.5C 475.339,617.411 464.506,621.578 449.5,615C 445.509,612.011 442.676,608.178 441,603.5C 440.333,579.167 440.333,554.833 441,530.5C 444.173,522.822 449.673,517.822 457.5,515.5 Z"/></g>
<g><path style="opacity:1" fill="#8bbe54" d="M 475.5,533.5 C 475.5,544.5 475.5,555.5 475.5,566.5C 465.833,566.5 456.167,566.5 446.5,566.5C 446.333,555.495 446.5,544.495 447,533.5C 452.246,521.893 460.413,519.393 471.5,526C 473.494,528.158 474.828,530.658 475.5,533.5 Z"/></g>
<g><path style="opacity:1" fill="#c0dba2" d="M 475.5,533.5 C 476.495,544.654 476.828,555.988 476.5,567.5C 466.319,567.827 456.319,567.494 446.5,566.5C 456.167,566.5 465.833,566.5 475.5,566.5C 475.5,555.5 475.5,544.5 475.5,533.5 Z"/></g>
<g><path style="opacity:1" fill="#fdfdfc" d="M 540.5,568.5 C 562.048,568.528 570.215,578.862 565,599.5C 548.862,616.638 532.362,633.472 515.5,650C 500.303,657.047 489.47,652.88 483,637.5C 481.734,631.405 482.734,625.738 486,620.5C 502.167,604.333 518.333,588.167 534.5,572C 536.727,571.059 538.727,569.892 540.5,568.5 Z"/></g>
<g><path style="opacity:1" fill="#8bbe54" d="M 540.5,575.5 C 557.474,574.8 563.308,582.466 558,598.5C 550.624,606.211 542.958,613.544 535,620.5C 527.695,614.363 520.862,607.696 514.5,600.5C 523.214,592.118 531.88,583.784 540.5,575.5 Z"/></g>
<g><path style="opacity:0.863" fill="#09682d" d="M 914.5,645.5 C 917.553,645.911 920.553,646.577 923.5,647.5C 924.429,648.689 924.762,650.022 924.5,651.5C 922.143,651.337 919.81,651.503 917.5,652C 916.142,653.832 915.808,655.665 916.5,657.5C 924.381,660.093 932.214,662.76 940,665.5C 940.748,663.668 941.748,662.001 943,660.5C 944.158,660.998 944.991,661.831 945.5,663C 943.65,667.714 942.316,672.547 941.5,677.5C 937.65,677.299 936.65,675.466 938.5,672C 930.643,669.577 922.81,667.077 915,664.5C 913.033,665.493 911.866,667.16 911.5,669.5C 912.865,670.941 914.365,672.274 916,673.5C 916.783,675.319 916.283,676.652 914.5,677.5C 911.921,676.294 909.421,674.961 907,673.5C 909.371,664.207 911.871,654.874 914.5,645.5 Z"/></g>
<g><path style="opacity:0.872" fill="#09682d" d="M 38.5,646.5 C 39.9221,646.75 40.9221,647.583 41.5,649C 51.4684,650.3 61.4684,651.3 71.5,652C 73.3031,652.637 74.6364,653.803 75.5,655.5C 67.6274,662.87 59.2941,669.704 50.5,676C 49.6198,677.356 49.2865,678.856 49.5,680.5C 48.1779,680.67 47.0113,680.337 46,679.5C 45.1341,675.736 43.9674,672.069 42.5,668.5C 44.2855,666.078 45.9522,666.078 47.5,668.5C 49.754,667.876 51.4206,666.543 52.5,664.5C 51.3456,661.548 50.3456,658.548 49.5,655.5C 47.2573,654.526 44.924,654.192 42.5,654.5C 42.735,657.812 41.735,658.645 39.5,657C 38.5986,654.129 37.5986,651.296 36.5,648.5C 37.2427,647.818 37.9094,647.151 38.5,646.5 Z M 53.5,655.5 C 56.7402,654.258 60.0736,654.424 63.5,656C 61.2953,658.54 58.7953,660.707 56,662.5C 55.3024,659.996 54.4691,657.663 53.5,655.5 Z"/></g>
<g><path style="opacity:0.872" fill="#08692d" d="M 78.5,674.5 C 79.4959,674.414 80.3292,674.748 81,675.5C 82.6667,679.833 84.3333,684.167 86,688.5C 87.8194,700.351 82.9861,704.851 71.5,702C 67.8841,699.258 65.3841,695.758 64,691.5C 61.9777,692.786 59.8111,693.786 57.5,694.5C 57.08,696.353 56.7467,698.187 56.5,700C 55.365,700.749 54.365,700.583 53.5,699.5C 52.1224,695.197 50.4557,691.03 48.5,687C 50.9852,684.79 52.8185,685.29 54,688.5C 61.523,685.602 69.023,682.602 76.5,679.5C 77.3219,677.861 77.9886,676.195 78.5,674.5 Z M 79.5,685.5 C 83.6934,689.689 83.0267,693.189 77.5,696C 75.5,696.667 73.5,696.667 71.5,696C 70.5,694.333 69.5,692.667 68.5,691C 72.1916,689.058 75.8583,687.224 79.5,685.5 Z"/></g>
<g><path style="opacity:0.857" fill="#09682d" d="M 933.5,686.5 C 934.833,686.5 936.167,686.5 937.5,686.5C 936.167,690.833 934.833,695.167 933.5,699.5C 932.167,699.5 930.833,699.5 929.5,699.5C 929.5,698.167 929.5,696.833 929.5,695.5C 927.473,695.338 925.473,695.505 923.5,696C 921.507,699.311 920.341,702.811 920,706.5C 921.333,707.833 922.667,709.167 924,710.5C 925.373,706.868 926.873,706.701 928.5,710C 927.794,712.62 926.794,715.12 925.5,717.5C 924.311,718.429 922.978,718.762 921.5,718.5C 921.657,717.127 921.49,715.793 921,714.5C 914.303,707.468 907.303,700.802 900,694.5C 899.505,692.527 899.338,690.527 899.5,688.5C 910.505,688.667 921.505,688.5 932.5,688C 933.056,687.617 933.389,687.117 933.5,686.5 Z M 907.5,696.5 C 911.019,695.192 914.685,695.192 918.5,696.5C 917.877,698.711 916.877,700.711 915.5,702.5C 913.079,700.066 910.412,698.066 907.5,696.5 Z"/></g>
<g><path style="opacity:0.883" fill="#08692d" d="M 90.5,704.5 C 91.4959,704.414 92.3292,704.748 93,705.5C 95.5684,709.612 97.2351,713.945 98,718.5C 95.5118,719.412 93.8452,718.412 93,715.5C 85.7875,718.856 78.6208,722.356 71.5,726C 71.0426,726.414 70.7093,726.914 70.5,727.5C 71.8333,730.167 73.1667,732.833 74.5,735.5C 84.8001,738.059 84.8001,740.059 74.5,741.5C 73.5,741.167 72.5,740.833 71.5,740.5C 68.4395,733.379 65.1062,726.379 61.5,719.5C 63.8361,716.645 65.6694,716.978 67,720.5C 74.8792,716.811 82.7126,712.977 90.5,709C 89.2721,707.51 89.2721,706.01 90.5,704.5 Z"/></g>
<g><path style="opacity:0.89" fill="#09692e" d="M 894.5,713.5 C 899.854,714.022 902.687,717.022 903,722.5C 911.159,717.326 916.325,719.493 918.5,729C 916.864,736.77 913.531,743.603 908.5,749.5C 906.167,749.167 905.833,748.167 907.5,746.5C 901.358,741.924 894.692,738.09 887.5,735C 885.191,734.244 883.191,734.744 881.5,736.5C 879.717,735.652 879.217,734.319 880,732.5C 882.62,726.086 886.12,720.253 890.5,715C 892.058,714.79 893.391,714.29 894.5,713.5 Z M 892.5,720.5 C 899.57,722.592 900.736,726.258 896,731.5C 892.735,730.455 889.902,728.789 887.5,726.5C 888.497,723.845 890.164,721.845 892.5,720.5 Z M 905.5,726.5 C 911.326,726.157 913.826,728.824 913,734.5C 912.477,736.223 911.477,737.556 910,738.5C 906.773,737.136 903.606,735.636 900.5,734C 901.805,731.213 903.472,728.713 905.5,726.5 Z"/></g>
<g><path style="opacity:0.883" fill="#09692d" d="M 104.5,733.5 C 106.017,733.511 107.184,734.177 108,735.5C 110.24,738.953 111.573,742.619 112,746.5C 109.91,747.791 108.576,747.124 108,744.5C 100.507,748.246 93.1733,752.246 86,756.5C 85.5065,758.134 85.3398,759.801 85.5,761.5C 84.1779,761.67 83.0113,761.337 82,760.5C 80.2941,756.921 78.4608,753.421 76.5,750C 78.4783,747.985 80.3116,748.152 82,750.5C 89.2461,746.794 96.4128,742.961 103.5,739C 103.69,737.172 104.023,735.338 104.5,733.5 Z"/></g>
<g><path style="opacity:0.889" fill="#09692d" d="M 876.5,746.5 C 895.368,746.522 902.201,755.522 897,773.5C 888.032,783.375 878.365,784.042 868,775.5C 861.117,762.808 863.95,753.142 876.5,746.5 Z M 874.5,753.5 C 882.039,753.02 888.205,755.687 893,761.5C 895.367,765.999 894.533,769.832 890.5,773C 879.744,775.788 872.41,771.955 868.5,761.5C 869.406,757.938 871.406,755.272 874.5,753.5 Z"/></g>
<g><path style="opacity:0.875" fill="#08692d" d="M 114.5,751.5 C 118.628,754.001 121.628,757.668 123.5,762.5C 121.999,764.957 120.332,764.957 118.5,762.5C 115.5,764.333 112.5,766.167 109.5,768C 114.228,770.114 119.228,771.281 124.5,771.5C 124.5,770.5 124.5,769.5 124.5,768.5C 125.978,768.238 127.311,768.571 128.5,769.5C 130.299,772.267 131.966,775.101 133.5,778C 132.991,779.169 132.158,780.002 131,780.5C 129.786,778.951 128.286,777.785 126.5,777C 122.117,775.988 117.784,774.821 113.5,773.5C 111.1,779.7 109.1,786.033 107.5,792.5C 109.305,794.86 108.805,796.527 106,797.5C 102.796,793.593 99.9623,789.426 97.5,785C 98.8646,783.318 100.365,783.151 102,784.5C 104.162,779.853 105.329,775.187 105.5,770.5C 103.167,772 100.833,773.5 98.5,775C 97.5939,776.699 97.2606,778.533 97.5,780.5C 95.6096,780.703 94.1096,780.037 93,778.5C 91.9196,776.004 90.5862,773.67 89,771.5C 88.3013,769.926 88.6346,768.593 90,767.5C 91.4659,769.325 93.2992,769.825 95.5,769C 101.753,764.957 107.92,760.79 114,756.5C 113.932,754.658 114.099,752.991 114.5,751.5 Z"/></g>
<g><path style="opacity:0.873" fill="#08692d" d="M 845.5,787.5 C 848.389,787.999 849.056,789.499 847.5,792C 854.333,797.5 861.167,803 868,808.5C 869.612,805.921 871.112,805.921 872.5,808.5C 870.36,811.807 868.026,814.974 865.5,818C 864.5,818.667 863.5,818.667 862.5,818C 862.201,816.68 862.034,815.18 862,813.5C 857.667,809.833 853.333,806.167 849,802.5C 852.333,810.5 855.667,818.5 859,826.5C 858.275,827.059 857.442,827.392 856.5,827.5C 848.572,825.017 840.572,823.183 832.5,822C 837.621,825.453 842.454,829.286 847,833.5C 849.72,830.641 851.386,830.974 852,834.5C 849.723,837.399 847.223,840.066 844.5,842.5C 842.31,841.252 841.977,839.586 843.5,837.5C 837.134,831.964 830.634,826.631 824,821.5C 822.56,822.148 821.06,822.481 819.5,822.5C 820.288,817.879 822.788,814.546 827,812.5C 834.375,814.344 841.708,816.344 849,818.5C 849.5,818.167 850,817.833 850.5,817.5C 846.953,810.24 843.287,803.073 839.5,796C 841.705,793.298 843.705,790.464 845.5,787.5 Z"/></g>
<g><path style="opacity:0.876" fill="#09682d" d="M 141.5,790.5 C 143.14,791.32 144.807,792.153 146.5,793C 139.491,804.33 133.158,815.496 127.5,826.5C 124.712,823.09 122.045,819.59 119.5,816C 120.917,813.174 122.417,813.007 124,815.5C 125.659,814.183 126.826,812.517 127.5,810.5C 125.694,807.528 123.694,804.695 121.5,802C 119.512,801.82 117.512,801.986 115.5,802.5C 115.33,803.822 115.663,804.989 116.5,806C 115.407,807.365 114.074,807.699 112.5,807C 110.637,804.636 108.971,802.136 107.5,799.5C 107.833,798.5 108.5,797.833 109.5,797.5C 111.432,798.52 113.432,798.687 115.5,798C 124.374,795.786 133.041,793.286 141.5,790.5 Z M 134.5,796.5 C 134.238,799.697 132.738,802.697 130,805.5C 128.38,803.759 126.88,801.925 125.5,800C 128.662,798.973 131.662,797.806 134.5,796.5 Z"/></g>
<g><path style="opacity:0.866" fill="#09682d" d="M 152.5,813.5 C 161.869,812.514 167.869,816.514 170.5,825.5C 169.589,828.082 167.923,830.082 165.5,831.5C 161.901,829.673 161.568,827.339 164.5,824.5C 163.971,820.247 161.638,818.413 157.5,819C 155.876,820.117 154.876,821.617 154.5,823.5C 156.627,828.664 157.461,833.997 157,839.5C 153.142,846.007 147.975,847.173 141.5,843C 137.575,839.809 134.908,835.809 133.5,831C 135.024,827.791 137.357,825.791 140.5,825C 141.167,825.667 141.833,826.333 142.5,827C 138.292,831.376 138.625,835.376 143.5,839C 147.465,840.417 149.799,839.084 150.5,835C 147.919,829.781 147.086,824.281 148,818.5C 149.025,816.313 150.525,814.646 152.5,813.5 Z"/></g>
<g><path style="opacity:0.882" fill="#09672d" d="M 814.5,825.5 C 815.627,826.122 816.627,826.955 817.5,828C 815.993,828.837 815.493,830.004 816,831.5C 820.333,835.833 824.667,840.167 829,844.5C 833.902,856.361 830.069,863.694 817.5,866.5C 815.423,866.308 813.423,865.808 811.5,865C 806.199,860.7 801.199,856.034 796.5,851C 795.328,850.647 794.162,850.813 793,851.5C 791.72,851.387 790.887,850.72 790.5,849.5C 793.484,846.015 796.651,842.682 800,839.5C 801.158,839.998 801.991,840.831 802.5,842C 801.67,843.465 801.504,844.965 802,846.5C 805.5,850 809,853.5 812.5,857C 819.092,861.295 823.759,859.795 826.5,852.5C 825.946,850.39 825.112,848.39 824,846.5C 820.167,842.667 816.333,838.833 812.5,835C 810.953,834.667 809.62,835.167 808.5,836.5C 807.28,836.113 806.613,835.28 806.5,834C 808.682,830.653 811.349,827.819 814.5,825.5 Z"/></g>
<g><path style="opacity:0.88" fill="#08692d" d="M 176.5,831.5 C 180.067,833.557 183.234,836.223 186,839.5C 186.38,843.643 185.047,844.31 182,841.5C 175.833,847.667 169.667,853.833 163.5,860C 166.396,863.105 165.729,864.438 161.5,864C 159,861.5 156.5,859 154,856.5C 153.301,854.926 153.635,853.593 155,852.5C 156.337,853.765 157.837,854.265 159.5,854C 165,848.5 170.5,843 176,837.5C 175.386,835.46 175.552,833.46 176.5,831.5 Z"/></g>
<g><path style="opacity:0.875" fill="#09682d" d="M 785.5,853.5 C 788.982,854.802 789.316,856.635 786.5,859C 792.356,867.035 798.689,874.702 805.5,882C 804.833,882.667 804.167,883.333 803.5,884C 793.433,882.649 783.433,880.982 773.5,879C 777.167,883.333 780.833,887.667 784.5,892C 785.899,892.595 787.232,892.428 788.5,891.5C 789.5,891.833 790.167,892.5 790.5,893.5C 788.12,896.881 785.12,899.547 781.5,901.5C 780.5,901.167 779.833,900.5 779.5,899.5C 780.485,897.902 780.651,896.235 780,894.5C 775.377,888.208 770.377,882.208 765,876.5C 763.644,877.38 762.144,877.714 760.5,877.5C 761.345,873.647 763.679,870.981 767.5,869.5C 776.152,871.796 784.818,873.629 793.5,875C 790.049,871.26 786.715,867.427 783.5,863.5C 781.599,862.769 779.599,862.769 777.5,863.5C 777.351,862.448 777.517,861.448 778,860.5C 780.479,858.034 782.979,855.701 785.5,853.5 Z"/></g>
<g><path style="opacity:0.873" fill="#09682d" d="M 201.5,855.5 C 207.359,858.846 212.526,863.18 217,868.5C 219.89,879.948 215.39,884.782 203.5,883C 200.898,882.117 198.731,880.617 197,878.5C 194.81,880.388 192.977,882.555 191.5,885C 194.624,887.264 194.791,889.43 192,891.5C 187.994,888.324 184.16,884.991 180.5,881.5C 180.887,880.28 181.72,879.613 183,879.5C 184.162,880.187 185.328,880.353 186.5,880C 191.833,873.667 197.167,867.333 202.5,861C 200.365,859.444 200.032,857.611 201.5,855.5 Z M 207.5,865.5 C 212.929,867.977 213.762,871.643 210,876.5C 206.087,879.318 202.587,878.818 199.5,875C 202.754,872.253 205.42,869.086 207.5,865.5 Z"/></g>
<g><path style="opacity:0.863" fill="#0a672d" d="M 226.5,876.5 C 234.317,880.311 241.317,885.311 247.5,891.5C 244.542,900.613 242.209,900.279 240.5,890.5C 238.424,888.712 236.257,887.046 234,885.5C 231.594,887.983 229.427,890.65 227.5,893.5C 230.139,897.04 233.139,897.707 236.5,895.5C 237.646,896.145 238.646,896.978 239.5,898C 237.12,901.258 234.62,904.424 232,907.5C 228.887,905.942 228.72,904.109 231.5,902C 229.333,900.5 227.167,899 225,897.5C 222.833,900.333 220.667,903.167 218.5,906C 221.667,908.5 224.833,911 228,913.5C 230.168,911.545 232.502,910.879 235,911.5C 235.667,912.5 235.667,913.5 235,914.5C 232.691,915.975 230.524,917.642 228.5,919.5C 221.5,914.167 214.5,908.833 207.5,903.5C 208,902.5 208.5,901.5 209,900.5C 210.667,901.833 212.333,901.833 214,900.5C 218.5,894.167 223,887.833 227.5,881.5C 225.576,880.035 225.243,878.368 226.5,876.5 Z"/></g>
<g><path style="opacity:0.892" fill="#08692d" d="M 753.5,879.5 C 757.149,880.49 757.482,882.323 754.5,885C 759,891.5 763.5,898 768,904.5C 769.458,905.747 770.958,905.747 772.5,904.5C 773.287,905.242 773.953,906.075 774.5,907C 770.756,909.955 766.922,912.789 763,915.5C 760.985,913.522 761.152,911.688 763.5,910C 759.027,903.361 754.361,896.861 749.5,890.5C 747.994,889.253 746.494,889.253 745,890.5C 744.13,889.892 743.63,889.059 743.5,888C 746.687,884.92 750.02,882.086 753.5,879.5 Z"/></g>
<g><path style="opacity:0.875" fill="#09682d" d="M 736.5,891.5 C 740.403,893.153 740.403,894.986 736.5,897C 741.167,904 745.833,911 750.5,918C 751.549,918.492 752.549,918.326 753.5,917.5C 754.415,918.328 755.081,919.328 755.5,920.5C 752.301,922.864 748.968,925.03 745.5,927C 743.647,927.551 742.313,926.885 741.5,925C 743.211,923.867 743.711,922.367 743,920.5C 740,915.5 737,910.5 734,905.5C 734.58,913.144 735.413,920.811 736.5,928.5C 737.018,933.168 735.351,934.335 731.5,932C 725.755,927.711 719.921,923.544 714,919.5C 716.074,924.638 718.74,929.638 722,934.5C 723.32,934.799 724.82,934.966 726.5,935C 726.957,935.414 727.291,935.914 727.5,936.5C 724.554,939.313 721.221,941.646 717.5,943.5C 714.981,941.641 714.981,939.641 717.5,937.5C 713.586,930.004 709.42,922.671 705,915.5C 700.611,916.781 699.778,915.614 702.5,912C 704.94,910.697 707.44,909.53 710,908.5C 716.903,913.037 723.737,917.704 730.5,922.5C 730.833,921.833 731.167,921.167 731.5,920.5C 729.77,912.566 728.937,904.566 729,896.5C 731.824,895.182 734.324,893.515 736.5,891.5 Z"/></g>
<g><path style="opacity:0.88" fill="#08692d" d="M 254.5,895.5 C 257.964,896.645 260.798,898.645 263,901.5C 263.926,909.912 265.259,918.245 267,926.5C 269.333,922.5 271.667,918.5 274,914.5C 274.624,912.536 274.124,910.869 272.5,909.5C 273.348,907.717 274.681,907.217 276.5,908C 279.341,909.586 282.007,911.42 284.5,913.5C 282.851,914.988 280.851,915.988 278.5,916.5C 273.5,924.5 268.5,932.5 263.5,940.5C 261.616,939.885 260.616,938.552 260.5,936.5C 259.251,927.511 258.085,918.511 257,909.5C 253.581,914.668 250.415,920.002 247.5,925.5C 248.95,926.85 249.617,928.516 249.5,930.5C 244.975,929.571 240.975,927.571 237.5,924.5C 239.149,923.012 241.149,922.012 243.5,921.5C 247.898,915.095 251.898,908.429 255.5,901.5C 254.833,900.5 254.167,899.5 253.5,898.5C 254.127,897.583 254.461,896.583 254.5,895.5 Z"/></g>
<g><path style="opacity:0.879" fill="#09692d" d="M 294.5,921.5 C 303.127,921.096 310.46,923.929 316.5,930C 312.922,940.077 310.255,939.91 308.5,929.5C 298.94,924.186 292.44,926.853 289,937.5C 287.231,944.126 289.397,948.96 295.5,952C 296.944,952.781 298.277,952.614 299.5,951.5C 300.167,949.833 300.833,948.167 301.5,946.5C 299.553,944.724 299.22,942.724 300.5,940.5C 303.715,942.274 307.048,943.774 310.5,945C 311.337,946.011 311.67,947.178 311.5,948.5C 310.178,948.33 309.011,948.663 308,949.5C 306.833,951.833 305.667,954.167 304.5,956.5C 291.203,958.193 283.203,952.526 280.5,939.5C 281.12,930.228 285.786,924.228 294.5,921.5 Z"/></g>
<g><path style="opacity:0.874" fill="#09682d" d="M 682.5,922.5 C 684.344,923.204 684.844,924.537 684,926.5C 680.537,931.253 677.704,936.42 675.5,942C 683.151,945.995 690.818,949.661 698.5,953C 694.046,955.311 689.546,957.478 685,959.5C 682.174,958.083 682.007,956.583 684.5,955C 680.402,951.932 676.069,950.099 671.5,949.5C 672.833,952.167 674.167,954.833 675.5,957.5C 677.555,958.187 679.221,959.354 680.5,961C 676.458,962.737 672.458,964.57 668.5,966.5C 665.86,964.378 666.194,962.544 669.5,961C 665.849,953.027 662.015,945.194 658,937.5C 656.174,938.841 655.007,938.341 654.5,936C 658.281,933.607 662.281,931.44 666.5,929.5C 669.355,931.836 669.022,933.669 665.5,935C 666.872,938.243 668.372,941.409 670,944.5C 672.214,940.534 674.047,936.367 675.5,932C 673.424,930.756 672.424,928.923 672.5,926.5C 676.116,925.686 679.449,924.352 682.5,922.5 Z"/></g>
<g><path style="opacity:0.873" fill="#09682d" d="M 325.5,932.5 C 330.008,934.114 334.341,936.114 338.5,938.5C 337.176,939.935 335.51,940.935 333.5,941.5C 330.207,948.545 327.207,955.711 324.5,963C 326.372,964.974 326.705,967.141 325.5,969.5C 321.126,967.764 316.793,965.931 312.5,964C 314.908,962.378 317.074,960.545 319,958.5C 321.781,951.938 324.281,945.271 326.5,938.5C 324.645,936.625 324.311,934.625 325.5,932.5 Z"/></g>
<g><path style="opacity:0.869" fill="#09682d" d="M 646.5,937.5 C 648.252,937.418 649.252,938.251 649.5,940C 648.612,941.22 647.945,942.553 647.5,944C 649.685,950.384 651.351,956.884 652.5,963.5C 651.757,971.906 647.09,976.24 638.5,976.5C 633.017,976.842 629.184,974.509 627,969.5C 625.197,963.758 623.197,958.091 621,952.5C 619.644,951.62 618.144,951.286 616.5,951.5C 616.5,950.167 616.5,948.833 616.5,947.5C 620.778,946.123 625.112,945.289 629.5,945C 630.647,947.085 629.98,948.585 627.5,949.5C 629.432,954.796 631.265,960.129 633,965.5C 635.913,970.689 640.08,971.856 645.5,969C 647.007,967.527 647.674,965.693 647.5,963.5C 646.035,957.107 644.369,950.774 642.5,944.5C 640.833,944.5 639.167,944.5 637.5,944.5C 637.5,943.167 637.5,941.833 637.5,940.5C 640.785,940.072 643.785,939.072 646.5,937.5 Z"/></g>
<g><path style="opacity:0.864" fill="#09682d" d="M 344.5,940.5 C 347.85,940.506 350.85,941.506 353.5,943.5C 356.39,951.612 359.556,959.612 363,967.5C 364.601,962.864 366.101,958.198 367.5,953.5C 367.272,951.603 366.272,950.27 364.5,949.5C 365,948.5 365.5,947.5 366,946.5C 369.997,947.61 373.83,949.11 377.5,951C 375.759,952.62 373.925,954.12 372,955.5C 369.132,963.772 366.465,972.105 364,980.5C 362.644,981.38 361.144,981.714 359.5,981.5C 356.835,971.84 353.335,962.506 349,953.5C 347.32,959.22 345.487,964.887 343.5,970.5C 346.144,971.741 346.977,973.741 346,976.5C 342.527,975.342 339.027,974.176 335.5,973C 334.663,971.989 334.33,970.822 334.5,969.5C 336.144,969.714 337.644,969.38 339,968.5C 341.5,961 344,953.5 346.5,946C 343.955,944.685 343.288,942.852 344.5,940.5 Z"/></g>
<g><path style="opacity:0.864" fill="#08692d" d="M 609.5,949.5 C 611.52,952.368 613.186,955.535 614.5,959C 611.11,961.009 608.777,960.009 607.5,956C 605.833,955.333 604.167,955.333 602.5,956C 601.941,956.725 601.608,957.558 601.5,958.5C 603.329,966.147 604.996,973.814 606.5,981.5C 608.5,981.5 610.5,981.5 612.5,981.5C 612.67,982.822 612.337,983.989 611.5,985C 606.748,985.855 602.081,987.021 597.5,988.5C 596.585,987.672 595.919,986.672 595.5,985.5C 597.113,984.573 598.779,983.739 600.5,983C 598.269,974.91 596.269,966.743 594.5,958.5C 588.604,957.848 586.27,960.515 587.5,966.5C 586.167,966.5 584.833,966.5 583.5,966.5C 582.599,963.128 582.599,959.795 583.5,956.5C 592.36,954.454 601.027,952.12 609.5,949.5 Z"/></g>
<g><path style="opacity:0.875" fill="#09682d" d="M 390.5,955.5 C 397.468,954.804 404.134,955.804 410.5,958.5C 411.647,960.765 411.814,963.098 411,965.5C 409.951,967.107 408.451,967.773 406.5,967.5C 406.831,961.667 403.998,959.001 398,959.5C 392.918,959.91 389.584,962.577 388,967.5C 385.955,973.603 387.121,979.103 391.5,984C 394.312,985.549 397.312,986.382 400.5,986.5C 400.38,984.266 400.713,982.099 401.5,980C 399.571,978.306 398.571,976.139 398.5,973.5C 402.527,974.139 406.527,974.972 410.5,976C 411.337,977.011 411.67,978.178 411.5,979.5C 410.325,979.281 409.325,979.614 408.5,980.5C 407.577,983.447 406.911,986.447 406.5,989.5C 395.309,992.162 386.475,988.828 380,979.5C 377.28,968.618 380.78,960.618 390.5,955.5 Z"/></g>
<g><path style="opacity:0.874" fill="#09682d" d="M 569.5,958.5 C 572.167,958.5 574.833,958.5 577.5,958.5C 575.65,960.74 574.65,963.406 574.5,966.5C 575.649,974.88 576.983,983.213 578.5,991.5C 577.372,992.262 576.205,992.929 575,993.5C 567.364,986.865 560.03,979.865 553,972.5C 553.601,978.79 554.435,985.123 555.5,991.5C 557.958,991.227 559.625,992.227 560.5,994.5C 556.251,995.726 551.917,996.393 547.5,996.5C 548.425,994.01 549.425,991.51 550.5,989C 549.604,981.789 548.437,974.622 547,967.5C 545.989,966.663 544.822,966.33 543.5,966.5C 543.5,965.167 543.5,963.833 543.5,962.5C 546.553,962.319 549.553,962.152 552.5,962C 558.38,968.18 564.547,974.014 571,979.5C 570.928,974.156 570.428,968.822 569.5,963.5C 567.042,963.773 565.375,962.773 564.5,960.5C 566.291,959.83 567.958,959.163 569.5,958.5 Z"/></g>
<g><path style="opacity:0.865" fill="#09692d" d="M 434.5,961.5 C 435.822,961.33 436.989,961.663 438,962.5C 440.449,974.664 443.949,986.331 448.5,997.5C 443.833,997.167 439.167,996.833 434.5,996.5C 434.5,995.167 434.5,993.833 434.5,992.5C 435.873,992.657 437.207,992.49 438.5,992C 437.76,990.215 437.093,988.382 436.5,986.5C 432.653,985.063 428.819,984.73 425,985.5C 424.293,987.081 423.46,988.581 422.5,990C 424.863,990.589 425.863,992.089 425.5,994.5C 421.802,994.448 418.135,994.114 414.5,993.5C 420.514,983.834 426.347,973.834 432,963.5C 432.995,962.934 433.828,962.267 434.5,961.5 Z M 431.5,972.5 C 432.497,972.47 433.164,972.97 433.5,974C 437.088,981.066 435.088,983.066 427.5,980C 428.973,977.552 430.307,975.052 431.5,972.5 Z"/></g>
<g><path style="opacity:0.847" fill="#09692d" d="M 474.5,999.5 C 471.5,999.5 468.5,999.5 465.5,999.5C 463.393,998.532 461.059,998.198 458.5,998.5C 458.384,995.09 460.05,993.756 463.5,994.5C 463.928,985.838 464.262,977.171 464.5,968.5C 459.925,967.343 457.258,969.01 456.5,973.5C 455.311,974.429 453.978,974.762 452.5,974.5C 452.412,970.694 453.079,967.027 454.5,963.5C 463.778,964.663 473.112,965.496 482.5,966C 483.617,969.073 483.784,972.24 483,975.5C 481.989,976.337 480.822,976.67 479.5,976.5C 479.007,974.194 478.674,971.861 478.5,969.5C 476.167,969.5 473.833,969.5 471.5,969.5C 470.917,978.155 470.584,986.822 470.5,995.5C 471.833,995.5 473.167,995.5 474.5,995.5C 474.5,996.833 474.5,998.167 474.5,999.5 Z"/></g>
<g><path style="opacity:0.871" fill="#09692d" d="M 525.5,999.5 C 522.833,999.5 520.167,999.5 517.5,999.5C 513.684,998.49 510.851,996.157 509,992.5C 507.633,984.908 506.8,977.242 506.5,969.5C 505.167,969.5 503.833,969.5 502.5,969.5C 502.5,968.167 502.5,966.833 502.5,965.5C 507.43,965.197 512.263,965.531 517,966.5C 517.167,966.833 517.333,967.167 517.5,967.5C 514.111,968.327 512.778,970.493 513.5,974C 514.033,978.83 514.533,983.663 515,988.5C 519.244,996.037 523.91,996.37 529,989.5C 529.72,982.464 529.553,975.464 528.5,968.5C 525.5,968.833 524.167,967.5 524.5,964.5C 528.881,964.628 533.215,964.295 537.5,963.5C 537.5,964.833 537.5,966.167 537.5,967.5C 535.654,967.222 534.32,967.889 533.5,969.5C 534.632,976.783 534.799,984.117 534,991.5C 532.227,995.44 529.394,998.107 525.5,999.5 Z"/></g>
</svg>
