<?xml version="1.0" encoding="UTF-8"?>
<!DOCTYPE svg PUBLIC "-//W3C//DTD SVG 1.1//EN" "http://www.w3.org/Graphics/SVG/1.1/DTD/svg11.dtd">
<svg xmlns="http://www.w3.org/2000/svg" version="1.1" width="1000px" height="452px" style="shape-rendering:geometricPrecision; text-rendering:geometricPrecision; image-rendering:optimizeQuality; fill-rule:evenodd; clip-rule:evenodd" xmlns:xlink="http://www.w3.org/1999/xlink">
<g><path style="opacity:0.996" fill="#89bd52" d="M 59.5,-0.5 C 100.167,-0.5 140.833,-0.5 181.5,-0.5C 181.783,0.28913 182.283,0.955796 183,1.5C 183.667,22.5 183.667,43.5 183,64.5C 182.5,65 182,65.5 181.5,66C 140.833,66.6667 100.167,66.6667 59.5,66C 59,65.5 58.5,65 58,64.5C 57.3333,43.5 57.3333,22.5 58,1.5C 58.7172,0.955796 59.2172,0.28913 59.5,-0.5 Z"/></g>
<g><path style="opacity:0.993" fill="#89bd52" d="M 214.5,451.5 C 157.5,451.5 100.5,451.5 43.5,451.5C 19.2488,450.396 4.58213,438.063 -0.5,414.5C -0.5,335.5 -0.5,256.5 -0.5,177.5C 1.55595,165.378 6.38929,154.378 14,144.5C 18.9302,138.447 24.4302,132.947 30.5,128C 39.9345,121.532 49.1012,114.699 58,107.5C 64.5814,99.5053 69.748,90.672 73.5,81C 105.833,80.3333 138.167,80.3333 170.5,81C 175.67,94.8505 184.003,106.517 195.5,116C 217.837,131.166 233.004,151.666 241,177.5C 241.667,255.5 241.667,333.5 241,411.5C 240.598,424.385 236.098,435.552 227.5,445C 223.343,447.745 219.01,449.912 214.5,451.5 Z M 53.5,174.5 C 100.168,174.333 146.835,174.5 193.5,175C 197.633,178.131 201.466,181.631 205,185.5C 206.653,252.789 206.986,320.122 206,387.5C 203.713,392.806 200.213,397.306 195.5,401C 148.225,402.652 100.892,402.985 53.5,402C 49.3672,398.869 45.5338,395.369 42,391.5C 40.3436,323.891 40.0103,256.224 41,188.5C 43.6004,182.401 47.7671,177.735 53.5,174.5 Z M 113.5,204.5 C 117.747,204.178 121.747,205.011 125.5,207C 133.833,215.333 142.167,223.667 150.5,232C 143.333,239.167 136.167,246.333 129,253.5C 120.667,245.167 112.333,236.833 104,228.5C 99.2399,217.27 102.407,209.27 113.5,204.5 Z M 77.5,250.5 C 84.6137,250.775 89.7803,254.108 93,260.5C 94.4428,273.426 94.9428,286.426 94.5,299.5C 84.1667,299.5 73.8333,299.5 63.5,299.5C 63.3334,286.829 63.5001,274.162 64,261.5C 66.6157,255.372 71.1157,251.706 77.5,250.5 Z M 168.5,308.5 C 179.498,308.002 185.832,313.168 187.5,324C 186.867,327.367 185.7,330.533 184,333.5C 175.986,341.681 167.819,349.681 159.5,357.5C 152.167,350.833 145.167,343.833 138.5,336.5C 147.641,326.018 157.641,316.685 168.5,308.5 Z"/></g>
<g><path style="opacity:0.96" fill="#09692d" d="M 326.5,138.5 C 328.284,139.574 329.451,141.24 330,143.5C 342.594,175.627 355.761,207.46 369.5,239C 371.878,239.511 374.212,240.178 376.5,241C 377.833,243.667 377.833,246.333 376.5,249C 362.837,249.5 349.171,249.667 335.5,249.5C 335.5,246.5 335.5,243.5 335.5,240.5C 339.315,240.718 342.648,239.718 345.5,237.5C 342.536,230.579 339.869,223.579 337.5,216.5C 324.829,216.333 312.162,216.5 299.5,217C 296.637,223.922 293.97,230.922 291.5,238C 294.928,239.289 298.428,240.456 302,241.5C 302.497,244.146 302.664,246.813 302.5,249.5C 291.48,249.832 280.48,249.499 269.5,248.5C 268.456,246.232 268.289,243.899 269,241.5C 272.49,240.517 275.657,239.017 278.5,237C 290.5,207 302.5,177 314.5,147C 318.661,144.33 322.661,141.496 326.5,138.5 Z M 316.5,167.5 C 317.117,167.611 317.617,167.944 318,168.5C 323.131,181.088 327.964,193.755 332.5,206.5C 323.494,206.666 314.494,206.5 305.5,206C 304.692,205.692 304.025,205.192 303.5,204.5C 308.133,192.242 312.466,179.909 316.5,167.5 Z"/></g>
<g><path style="opacity:0.961" fill="#09692d" d="M 853.5,138.5 C 867.462,171.199 880.962,204.199 894,237.5C 896.8,239.495 899.967,240.495 903.5,240.5C 903.5,243.5 903.5,246.5 903.5,249.5C 889.5,249.5 875.5,249.5 861.5,249.5C 861.5,246.5 861.5,243.5 861.5,240.5C 864.568,240.453 867.568,239.953 870.5,239C 871.022,238.439 871.355,237.772 871.5,237C 868.931,230.46 866.264,223.96 863.5,217.5C 850.846,216.334 838.18,216.167 825.5,217C 823.03,224.078 820.363,231.078 817.5,238C 820.928,239.289 824.428,240.456 828,241.5C 828.497,244.146 828.664,246.813 828.5,249.5C 804.167,249.5 779.833,249.5 755.5,249.5C 755.25,246.786 755.083,244.119 755,241.5C 758.147,240.722 761.313,239.889 764.5,239C 754.667,227.167 744.833,215.333 735,203.5C 733.211,201.771 731.044,201.104 728.5,201.5C 728.333,212.838 728.5,224.172 729,235.5C 729.309,236.766 729.809,237.933 730.5,239C 733.43,239.606 736.263,240.44 739,241.5C 739.497,244.146 739.664,246.813 739.5,249.5C 725.5,249.5 711.5,249.5 697.5,249.5C 697.5,246.5 697.5,243.5 697.5,240.5C 700.959,240.469 704.292,239.802 707.5,238.5C 710.141,210.164 710.141,181.83 707.5,153.5C 703.624,152.619 699.958,151.286 696.5,149.5C 697.374,147.253 697.708,144.92 697.5,142.5C 711.833,142.5 726.167,142.5 740.5,142.5C 740.664,145.187 740.497,147.854 740,150.5C 736.963,151.709 733.796,152.543 730.5,153C 729.809,154.067 729.309,155.234 729,156.5C 728.5,168.162 728.333,179.829 728.5,191.5C 730.655,191.628 732.655,191.128 734.5,190C 746.863,177.971 758.863,165.638 770.5,153C 767.266,152.289 764.099,151.455 761,150.5C 760.503,147.854 760.336,145.187 760.5,142.5C 773.167,142.5 785.833,142.5 798.5,142.5C 798.5,145.5 798.5,148.5 798.5,151.5C 794.812,151.781 791.145,152.281 787.5,153C 774.655,165.012 761.988,177.179 749.5,189.5C 763.61,206.446 778.276,222.946 793.5,239C 797.958,241.07 801.791,240.237 805,236.5C 817,206.5 829,176.5 841,146.5C 845.316,143.934 849.483,141.267 853.5,138.5 Z M 842.5,168.5 C 843.75,168.577 844.583,169.244 845,170.5C 849.81,182.437 854.31,194.437 858.5,206.5C 849.494,206.666 840.494,206.5 831.5,206C 830.692,205.692 830.025,205.192 829.5,204.5C 834.238,192.617 838.571,180.617 842.5,168.5 Z"/></g>
<g><path style="opacity:0.958" fill="#09692d" d="M 901.5,141.5 C 932.167,142.833 962.833,142.833 993.5,141.5C 994.833,151.832 996.166,162.166 997.5,172.5C 993.918,173.266 990.418,173.266 987,172.5C 984.327,165.981 982.16,159.314 980.5,152.5C 972.833,152.5 965.167,152.5 957.5,152.5C 957.333,180.169 957.5,207.835 958,235.5C 958.318,237.061 959.151,238.228 960.5,239C 964.813,239.735 969.147,240.235 973.5,240.5C 973.5,243.5 973.5,246.5 973.5,249.5C 956.5,249.5 939.5,249.5 922.5,249.5C 922.5,246.5 922.5,243.5 922.5,240.5C 927.53,240.02 932.53,239.353 937.5,238.5C 938.816,209.834 938.816,181.167 937.5,152.5C 930.137,152.169 922.803,152.503 915.5,153.5C 912.97,159.756 910.637,166.09 908.5,172.5C 905.894,173.652 903.227,173.818 900.5,173C 899.316,171.82 898.649,170.32 898.5,168.5C 899.748,159.52 900.748,150.52 901.5,141.5 Z"/></g>
<g><path style="opacity:0.951" fill="#08692d" d="M 384.5,142.5 C 400.167,142.5 415.833,142.5 431.5,142.5C 431.5,145.5 431.5,148.5 431.5,151.5C 426.452,151.842 421.452,152.508 416.5,153.5C 415.534,181.475 415.2,209.475 415.5,237.5C 426.838,237.667 438.172,237.5 449.5,237C 451.552,236.07 453.052,234.57 454,232.5C 456.167,228.167 458.333,223.833 460.5,219.5C 464.448,218.401 468.115,219.068 471.5,221.5C 468.833,230.833 466.167,240.167 463.5,249.5C 437.197,249.645 410.864,249.645 384.5,249.5C 383.737,246.859 383.57,244.192 384,241.5C 387.426,240.313 390.926,239.313 394.5,238.5C 395.833,210.167 395.833,181.833 394.5,153.5C 390.926,152.687 387.426,151.687 384,150.5C 383.57,147.808 383.737,145.141 384.5,142.5 Z"/></g>
<g><path style="opacity:0.962" fill="#09692d" d="M 478.5,142.5 C 498.213,142.062 517.88,142.562 537.5,144C 559.51,151.658 566.343,166.491 558,188.5C 552.478,197.345 544.644,203.179 534.5,206C 526.227,207.33 517.893,207.83 509.5,207.5C 510.371,217.806 510.704,228.14 510.5,238.5C 515.516,239.058 520.516,239.725 525.5,240.5C 525.5,243.5 525.5,246.5 525.5,249.5C 510.167,249.5 494.833,249.5 479.5,249.5C 479.5,246.5 479.5,243.5 479.5,240.5C 482.522,240.196 485.522,239.696 488.5,239C 489.126,238.25 489.626,237.416 490,236.5C 490.667,209.167 490.667,181.833 490,154.5C 486.588,152.56 482.921,151.227 479,150.5C 478.503,147.854 478.336,145.187 478.5,142.5 Z M 510.5,151.5 C 534.672,150.507 544.172,161.84 539,185.5C 536.768,190.731 532.935,194.231 527.5,196C 521.78,196.788 516.114,196.621 510.5,195.5C 509.338,180.832 509.338,166.166 510.5,151.5 Z"/></g>
<g><path style="opacity:0.96" fill="#09692e" d="M 574.5,142.5 C 588.833,142.5 603.167,142.5 617.5,142.5C 617.664,145.187 617.497,147.854 617,150.5C 613.88,151.573 610.713,152.573 607.5,153.5C 606.702,155.078 606.202,156.744 606,158.5C 605.333,175.833 605.333,193.167 606,210.5C 608.456,230.277 619.623,238.777 639.5,236C 649.929,232.674 655.762,225.508 657,214.5C 657.667,194.5 657.667,174.5 657,154.5C 653.359,152.835 649.525,151.668 645.5,151C 644.556,148.281 644.223,145.448 644.5,142.5C 657.167,142.5 669.833,142.5 682.5,142.5C 682.232,145.119 682.565,147.619 683.5,150C 679.948,151.35 676.281,152.516 672.5,153.5C 671.667,171.491 671.167,189.491 671,207.5C 670.719,234.778 657.052,249.445 630,251.5C 607.177,251.948 592.844,241.282 587,219.5C 585.967,197.514 585.133,175.514 584.5,153.5C 580.99,152.434 577.49,151.434 574,150.5C 574.083,147.881 574.25,145.214 574.5,142.5 Z"/></g>
<g><path style="opacity:0.984" fill="#8abd53" d="M 112.5,196.5 C 119.326,195.957 125.659,197.457 131.5,201C 150.061,218.893 167.894,237.393 185,256.5C 190.233,275.704 183.066,287.037 163.5,290.5C 158.436,290.234 153.769,288.734 149.5,286C 132.333,268.833 115.167,251.667 98,234.5C 90.8779,222.176 92.3779,211.01 102.5,201C 105.815,199.17 109.149,197.67 112.5,196.5 Z M 113.5,204.5 C 102.407,209.27 99.2399,217.27 104,228.5C 112.333,236.833 120.667,245.167 129,253.5C 136.167,246.333 143.333,239.167 150.5,232C 142.167,223.667 133.833,215.333 125.5,207C 121.747,205.011 117.747,204.178 113.5,204.5 Z"/></g>
<g><path style="opacity:0.972" fill="#8abe52" d="M 77.5,242.5 C 90.643,243.148 98.8097,249.815 102,262.5C 102.167,274.833 102.333,287.167 102.5,299.5C 102.631,313.219 102.131,326.886 101,340.5C 93.9906,354.388 83.1572,358.888 68.5,354C 62.0886,350.694 57.9219,345.528 56,338.5C 55.3333,312.5 55.3333,286.5 56,260.5C 59.2482,249.649 66.4149,243.649 77.5,242.5 Z M 77.5,250.5 C 71.1157,251.706 66.6157,255.372 64,261.5C 63.5001,274.162 63.3334,286.829 63.5,299.5C 73.8333,299.5 84.1667,299.5 94.5,299.5C 94.9428,286.426 94.4428,273.426 93,260.5C 89.7803,254.108 84.6137,250.775 77.5,250.5 Z"/></g>
<g><path style="opacity:0.909" fill="#08692d" d="M 999.5,265.5 C 999.5,266.833 999.5,268.167 999.5,269.5C 998.251,271.136 996.584,272.303 994.5,273C 753.5,273.667 512.5,273.667 271.5,273C 265.319,270.153 264.986,266.819 270.5,263C 512.167,262.333 753.833,262.333 995.5,263C 996.984,263.662 998.317,264.496 999.5,265.5 Z"/></g>
<g><path style="opacity:0.807" fill="#8abd52" d="M 282.5,284.5 C 283.5,284.5 284.5,284.5 285.5,284.5C 286.061,293.455 287.728,302.122 290.5,310.5C 287.833,311.833 285.167,311.833 282.5,310.5C 286.166,302.829 283.832,300.495 275.5,303.5C 273.287,305.542 272.62,307.875 273.5,310.5C 271.167,311.833 268.833,311.833 266.5,310.5C 267.628,309.738 268.795,309.071 270,308.5C 274.447,300.604 278.614,292.604 282.5,284.5 Z M 281.5,291.5 C 282.657,294.273 283.324,297.273 283.5,300.5C 281.396,300.799 279.396,300.466 277.5,299.5C 279.297,297.045 280.63,294.378 281.5,291.5 Z"/></g>
<g><path style="opacity:0.779" fill="#89bd52" d="M 434.5,284.5 C 438.846,284.334 443.179,284.501 447.5,285C 452.938,290.135 452.605,295.135 446.5,300C 443.607,301.149 440.607,301.649 437.5,301.5C 436.908,304.127 436.575,306.794 436.5,309.5C 437.675,309.281 438.675,309.614 439.5,310.5C 436.167,311.833 432.833,311.833 429.5,310.5C 430.325,309.614 431.325,309.281 432.5,309.5C 433.574,302.463 434.907,295.463 436.5,288.5C 435.775,287.133 435.108,285.8 434.5,284.5 Z M 440.5,286.5 C 444.841,285.52 447.174,287.187 447.5,291.5C 447.015,296.984 444.015,299.651 438.5,299.5C 439.167,295.167 439.833,290.833 440.5,286.5 Z"/></g>
<g><path style="opacity:0.877" fill="#8bbd52" d="M 539.5,284.5 C 542.119,284.232 544.619,284.565 547,285.5C 549.529,291.421 551.863,297.421 554,303.5C 555.293,298.701 556.46,293.868 557.5,289C 557.156,287.635 556.489,286.468 555.5,285.5C 558.167,284.167 560.833,284.167 563.5,285.5C 562.066,286.23 560.9,287.23 560,288.5C 558.433,296.169 556.933,303.836 555.5,311.5C 554.325,311.719 553.325,311.386 552.5,310.5C 549.765,303.127 546.931,295.794 544,288.5C 542.749,295.426 541.249,302.259 539.5,309C 540.308,309.308 540.975,309.808 541.5,310.5C 539.167,311.833 536.833,311.833 534.5,310.5C 535.325,309.614 536.325,309.281 537.5,309.5C 538.591,302.632 539.925,295.799 541.5,289C 540.926,287.393 540.26,285.893 539.5,284.5 Z"/></g>
<g><path style="opacity:0.852" fill="#8bbd52" d="M 770.5,284.5 C 772.833,284.5 775.167,284.5 777.5,284.5C 778.02,291.354 779.187,298.021 781,304.5C 784.333,298.5 787.667,292.5 791,286.5C 793.218,284.381 795.718,284.048 798.5,285.5C 797.758,286.287 796.925,286.953 796,287.5C 794.755,294.393 793.255,301.226 791.5,308C 792.022,308.95 792.689,309.784 793.5,310.5C 790.5,311.833 787.5,311.833 784.5,310.5C 785.325,309.614 786.325,309.281 787.5,309.5C 788.924,304.219 789.758,298.886 790,293.5C 786.725,299.925 782.891,305.925 778.5,311.5C 776.59,305.343 775.09,299.01 774,292.5C 773.023,297.886 771.856,303.22 770.5,308.5C 773.105,310.416 772.605,311.416 769,311.5C 764.723,310.941 764.556,310.274 768.5,309.5C 769.352,302.421 770.686,295.421 772.5,288.5C 771.775,287.133 771.108,285.8 770.5,284.5 Z"/></g>
<g><path style="opacity:0.858" fill="#8dbe52" d="M 815.5,284.5 C 817.833,284.5 820.167,284.5 822.5,284.5C 824.368,290.576 826.534,296.576 829,302.5C 830.727,297.429 832.227,292.263 833.5,287C 832.692,286.692 832.025,286.192 831.5,285.5C 833.833,284.167 836.167,284.167 838.5,285.5C 837.675,286.386 836.675,286.719 835.5,286.5C 833.961,294.86 832.295,303.194 830.5,311.5C 829.5,311.5 828.5,311.5 827.5,311.5C 825.167,304.006 822.334,296.673 819,289.5C 817.833,295.333 816.667,301.167 815.5,307C 815.645,308.226 815.978,309.393 816.5,310.5C 814.167,311.833 811.833,311.833 809.5,310.5C 810.325,309.614 811.325,309.281 812.5,309.5C 813.724,301.879 815.39,294.379 817.5,287C 816.244,286.583 815.577,285.75 815.5,284.5 Z"/></g>
<g><path style="opacity:0.823" fill="#8abd52" d="M 296.5,284.5 C 300.846,284.334 305.179,284.501 309.5,285C 313.292,287.053 314.458,290.219 313,294.5C 310.224,299.939 305.724,302.272 299.5,301.5C 299.167,304.167 298.833,306.833 298.5,309.5C 299.675,309.281 300.675,309.614 301.5,310.5C 298.167,311.833 294.833,311.833 291.5,310.5C 292.325,309.614 293.325,309.281 294.5,309.5C 295.51,302.615 296.844,295.782 298.5,289C 297.926,287.393 297.26,285.893 296.5,284.5 Z M 302.5,286.5 C 306.841,285.52 309.174,287.187 309.5,291.5C 309.015,296.984 306.015,299.651 300.5,299.5C 301.327,295.193 301.993,290.86 302.5,286.5 Z"/></g>
<g><path style="opacity:0.753" fill="#89bd52" d="M 317.5,284.5 C 320.247,284.187 322.914,284.52 325.5,285.5C 324.758,286.287 323.925,286.953 323,287.5C 321.496,294.847 319.996,302.181 318.5,309.5C 321.247,309.813 323.914,309.48 326.5,308.5C 326.953,306.435 327.953,304.768 329.5,303.5C 329.782,305.987 329.782,308.653 329.5,311.5C 323.463,311.829 317.463,311.496 311.5,310.5C 312.325,309.614 313.325,309.281 314.5,309.5C 315.979,301.936 317.646,294.436 319.5,287C 318.244,286.583 317.577,285.75 317.5,284.5 Z"/></g>
<g><path style="opacity:0.83" fill="#8abd52" d="M 335.5,284.5 C 338.572,284.183 341.572,284.516 344.5,285.5C 343.675,286.386 342.675,286.719 341.5,286.5C 340.426,293.537 339.093,300.537 337.5,307.5C 337.919,308.672 338.585,309.672 339.5,310.5C 336.5,311.833 333.5,311.833 330.5,310.5C 331.325,309.614 332.325,309.281 333.5,309.5C 334.51,302.615 335.844,295.782 337.5,289C 336.926,287.393 336.26,285.893 335.5,284.5 Z"/></g>
<g><path style="opacity:0.823" fill="#8abd52" d="M 348.5,284.5 C 351.572,284.183 354.572,284.516 357.5,285.5C 356.675,286.386 355.675,286.719 354.5,286.5C 353.788,289.875 353.288,293.209 353,296.5C 357.205,293.15 360.371,289.15 362.5,284.5C 364.604,284.201 366.604,284.534 368.5,285.5C 364.348,289.151 360.348,292.984 356.5,297C 358.333,297.5 359.5,298.667 360,300.5C 360.179,303.553 360.679,306.553 361.5,309.5C 362.885,305.622 364.051,305.622 365,309.5C 369.587,301.996 373.92,294.329 378,286.5C 378.689,285.643 379.522,284.977 380.5,284.5C 382.41,292.767 384.076,301.1 385.5,309.5C 386.988,307.851 387.988,305.851 388.5,303.5C 389.754,309.269 393.087,310.936 398.5,308.5C 400.256,306.809 400.756,304.809 400,302.5C 397.154,300.743 394.488,298.743 392,296.5C 390.557,291.788 391.723,287.955 395.5,285C 399.336,284.694 403.003,284.528 406.5,284.5C 407.491,287.244 407.157,289.911 405.5,292.5C 404.825,287.647 402.158,285.813 397.5,287C 395.375,288.737 394.542,290.904 395,293.5C 397.251,295.377 399.751,296.877 402.5,298C 406.312,305.875 403.812,310.708 395,312.5C 393.128,311.932 391.295,311.265 389.5,310.5C 385.847,311.764 382.18,311.764 378.5,310.5C 382.166,302.829 379.832,300.495 371.5,303.5C 370.752,305.332 369.752,306.999 368.5,308.5C 368.833,309.167 369.167,309.833 369.5,310.5C 359.26,315.103 354.76,311.77 356,300.5C 354.915,299.707 353.748,299.04 352.5,298.5C 351.434,302.009 350.434,305.509 349.5,309C 350.308,309.308 350.975,309.808 351.5,310.5C 348.833,311.833 346.167,311.833 343.5,310.5C 344.242,309.713 345.075,309.047 346,308.5C 347.264,301.612 348.764,294.778 350.5,288C 349.571,286.923 348.904,285.756 348.5,284.5 Z M 377.5,291.5 C 378.913,294.219 379.58,297.219 379.5,300.5C 377.396,300.799 375.396,300.466 373.5,299.5C 375.372,297.09 376.705,294.423 377.5,291.5 Z"/></g>
<g><path style="opacity:0.834" fill="#89bd53" d="M 411.5,284.5 C 414.572,284.183 417.572,284.516 420.5,285.5C 419.675,286.386 418.675,286.719 417.5,286.5C 416.49,293.385 415.156,300.218 413.5,307C 413.844,308.365 414.511,309.532 415.5,310.5C 412.5,311.833 409.5,311.833 406.5,310.5C 407.325,309.614 408.325,309.281 409.5,309.5C 410.574,302.463 411.907,295.463 413.5,288.5C 412.775,287.133 412.108,285.8 411.5,284.5 Z"/></g>
<g><path style="opacity:0.741" fill="#8bbd52" d="M 455.5,284.5 C 461.509,284.334 467.509,284.501 473.5,285C 472.426,287.456 471.426,289.956 470.5,292.5C 469.534,290.604 469.201,288.604 469.5,286.5C 466.552,286.223 463.719,286.556 461,287.5C 460.289,290.734 459.455,293.901 458.5,297C 462.823,298.263 466.156,297.096 468.5,293.5C 468.833,293.833 469.167,294.167 469.5,294.5C 468.994,297.391 467.994,300.058 466.5,302.5C 465.289,301.726 465.289,300.893 466.5,300C 463.773,299.182 461.106,299.348 458.5,300.5C 457.577,303.447 456.911,306.447 456.5,309.5C 459.572,309.817 462.572,309.484 465.5,308.5C 465.953,306.435 466.953,304.768 468.5,303.5C 468.782,305.987 468.782,308.653 468.5,311.5C 462.132,311.83 455.798,311.496 449.5,310.5C 450.325,309.614 451.325,309.281 452.5,309.5C 453.724,301.879 455.39,294.379 457.5,287C 456.244,286.583 455.577,285.75 455.5,284.5 Z"/></g>
<g><path style="opacity:0.856" fill="#8abd52" d="M 477.5,284.5 C 479.792,284.244 481.959,284.577 484,285.5C 486.333,291.167 488.667,296.833 491,302.5C 493.458,297.049 494.291,291.382 493.5,285.5C 495.833,284.167 498.167,284.167 500.5,285.5C 499.675,286.386 498.675,286.719 497.5,286.5C 495.705,294.806 494.039,303.14 492.5,311.5C 491.5,311.5 490.5,311.5 489.5,311.5C 487.167,304.006 484.334,296.673 481,289.5C 479.876,296.123 478.376,302.623 476.5,309C 477.308,309.308 477.975,309.808 478.5,310.5C 476.167,311.833 473.833,311.833 471.5,310.5C 472.325,309.614 473.325,309.281 474.5,309.5C 475.766,302.667 477.1,295.834 478.5,289C 478.227,287.467 477.894,285.967 477.5,284.5 Z"/></g>
<g><path style="opacity:0.825" fill="#89bd53" d="M 527.5,284.5 C 530.572,284.183 533.572,284.516 536.5,285.5C 535.675,286.386 534.675,286.719 533.5,286.5C 532.276,294.121 530.61,301.621 528.5,309C 529.308,309.308 529.975,309.808 530.5,310.5C 527.833,311.833 525.167,311.833 522.5,310.5C 523.325,309.614 524.325,309.281 525.5,309.5C 526.317,302.413 527.651,295.413 529.5,288.5C 528.775,287.133 528.108,285.8 527.5,284.5 Z"/></g>
<g><path style="opacity:0.879" fill="#8abd53" d="M 597.5,284.5 C 598.5,284.5 599.5,284.5 600.5,284.5C 601.004,291.531 601.838,298.531 603,305.5C 603.304,307.441 604.137,309.107 605.5,310.5C 602.554,311.655 599.554,311.821 596.5,311C 597.728,310.221 598.728,309.221 599.5,308C 598.767,306.234 598.433,304.401 598.5,302.5C 595.813,302.336 593.146,302.503 590.5,303C 589.415,305.172 588.081,307.172 586.5,309C 587.308,309.308 587.975,309.808 588.5,310.5C 586.167,311.833 583.833,311.833 581.5,310.5C 582.5,309.833 583.5,309.167 584.5,308.5C 588.89,300.466 593.224,292.466 597.5,284.5 Z M 596.5,291.5 C 597.254,294.023 597.92,296.689 598.5,299.5C 596.235,300.647 593.902,300.814 591.5,300C 593.556,297.386 595.223,294.553 596.5,291.5 Z"/></g>
<g><path style="opacity:0.829" fill="#8bbe52" d="M 609.5,284.5 C 616.2,284.17 622.866,284.503 629.5,285.5C 628.949,288.056 627.949,290.389 626.5,292.5C 625.769,290.599 625.769,288.599 626.5,286.5C 624.5,286.5 622.5,286.5 620.5,286.5C 619.424,294.214 618.091,301.88 616.5,309.5C 617.675,309.281 618.675,309.614 619.5,310.5C 615.5,311.833 611.5,311.833 607.5,310.5C 609.045,309.548 610.712,309.215 612.5,309.5C 614.091,301.88 615.424,294.214 616.5,286.5C 615.127,286.343 613.793,286.51 612.5,287C 608.888,293.863 607.888,293.029 609.5,284.5 Z"/></g>
<g><path style="opacity:0.868" fill="#8abd52" d="M 640.5,284.5 C 643.572,284.183 646.572,284.516 649.5,285.5C 648.675,286.386 647.675,286.719 646.5,286.5C 645.329,292.854 643.995,299.187 642.5,305.5C 642.971,308.302 644.638,309.636 647.5,309.5C 651.612,309.526 654.112,307.526 655,303.5C 656.088,298.313 657.255,293.146 658.5,288C 657.978,287.05 657.311,286.216 656.5,285.5C 658.833,284.167 661.167,284.167 663.5,285.5C 662.758,286.287 661.925,286.953 661,287.5C 659.712,294.279 658.045,300.945 656,307.5C 651.986,312.045 647.153,313.212 641.5,311C 640.034,309.448 639.034,307.614 638.5,305.5C 639.896,299.689 641.229,293.856 642.5,288C 641.571,286.923 640.904,285.756 640.5,284.5 Z"/></g>
<g><path style="opacity:0.828" fill="#8bbd53" d="M 666.5,284.5 C 668.833,284.5 671.167,284.5 673.5,284.5C 675.164,290.655 677.33,296.655 680,302.5C 681.622,297.403 683.122,292.236 684.5,287C 683.692,286.692 683.025,286.192 682.5,285.5C 684.833,284.167 687.167,284.167 689.5,285.5C 688.675,286.386 687.675,286.719 686.5,286.5C 684.961,294.86 683.295,303.194 681.5,311.5C 680.5,311.5 679.5,311.5 678.5,311.5C 676.167,304.006 673.334,296.673 670,289.5C 668.876,296.123 667.376,302.623 665.5,309C 666.308,309.308 666.975,309.808 667.5,310.5C 665.167,311.833 662.833,311.833 660.5,310.5C 661.325,309.614 662.325,309.281 663.5,309.5C 664.724,301.879 666.39,294.379 668.5,287C 667.244,286.583 666.577,285.75 666.5,284.5 Z"/></g>
<g><path style="opacity:0.838" fill="#8abd52" d="M 690.5,284.5 C 697.167,284.5 703.833,284.5 710.5,284.5C 710.216,287.254 709.549,289.92 708.5,292.5C 707.534,290.604 707.201,288.604 707.5,286.5C 705.533,286.261 703.699,286.594 702,287.5C 700.561,294.861 699.061,302.195 697.5,309.5C 698.978,309.238 700.311,309.571 701.5,310.5C 697.5,311.833 693.5,311.833 689.5,310.5C 690.689,309.571 692.022,309.238 693.5,309.5C 694.911,302.113 696.578,294.779 698.5,287.5C 696.926,286.369 695.259,286.202 693.5,287C 692.782,288.987 691.782,290.821 690.5,292.5C 689.795,289.911 689.795,287.244 690.5,284.5 Z"/></g>
<g><path style="opacity:0.866" fill="#8abd53" d="M 711.5,284.5 C 714.572,284.183 717.572,284.516 720.5,285.5C 719.066,286.23 717.9,287.23 717,288.5C 715.897,294.18 714.731,299.847 713.5,305.5C 713.971,308.302 715.638,309.636 718.5,309.5C 722.207,309.057 724.707,307.057 726,303.5C 726.912,298.273 728.079,293.107 729.5,288C 726.626,285.701 727.126,284.535 731,284.5C 735.277,285.059 735.444,285.726 731.5,286.5C 730.789,293.675 729.289,300.675 727,307.5C 722.986,312.045 718.153,313.212 712.5,311C 710.99,309.649 709.99,307.982 709.5,306C 710.675,299.967 712.008,293.967 713.5,288C 712.571,286.923 711.904,285.756 711.5,284.5 Z"/></g>
<g><path style="opacity:0.796" fill="#8abd53" d="M 737.5,284.5 C 740.518,284.335 743.518,284.502 746.5,285C 742.9,287.961 741.4,291.795 742,296.5C 746.205,293.15 749.371,289.15 751.5,284.5C 753.604,284.201 755.604,284.534 757.5,285.5C 752.728,288.768 748.395,292.602 744.5,297C 745.766,297.309 746.933,297.809 748,298.5C 748.914,302.142 749.748,305.808 750.5,309.5C 751.167,308.5 751.833,307.5 752.5,306.5C 753.73,309.694 752.564,311.694 749,312.5C 747.739,312.241 746.739,311.574 746,310.5C 745.667,307.5 745.333,304.5 745,301.5C 744.3,299.968 743.134,298.968 741.5,298.5C 740.249,301.756 739.249,305.09 738.5,308.5C 739.167,309.167 739.833,309.833 740.5,310.5C 737.833,311.833 735.167,311.833 732.5,310.5C 733.522,309.646 734.355,308.646 735,307.5C 736.438,300.808 737.938,294.142 739.5,287.5C 738.388,286.735 737.721,285.735 737.5,284.5 Z"/></g>
<g><path style="opacity:0.848" fill="#8bbe52" d="M 802.5,284.5 C 805.572,284.183 808.572,284.516 811.5,285.5C 810.675,286.386 809.675,286.719 808.5,286.5C 807.426,293.537 806.093,300.537 804.5,307.5C 804.919,308.672 805.585,309.672 806.5,310.5C 803.5,311.833 800.5,311.833 797.5,310.5C 798.325,309.614 799.325,309.281 800.5,309.5C 801.574,302.463 802.907,295.463 804.5,288.5C 803.775,287.133 803.108,285.8 802.5,284.5 Z"/></g>
<g><path style="opacity:0.841" fill="#8abd53" d="M 841.5,284.5 C 844.247,284.187 846.914,284.52 849.5,285.5C 848.675,286.386 847.675,286.719 846.5,286.5C 845.761,292.532 844.761,298.532 843.5,304.5C 844.698,309.662 847.698,310.829 852.5,308C 853.701,307.097 854.535,305.931 855,304.5C 856.377,298.605 857.877,292.771 859.5,287C 855.896,285.52 856.396,284.686 861,284.5C 865.277,285.059 865.444,285.726 861.5,286.5C 860.293,293.994 858.46,301.328 856,308.5C 850.503,313.482 845.169,313.482 840,308.5C 839.874,301.127 841.041,293.961 843.5,287C 842.244,286.583 841.577,285.75 841.5,284.5 Z"/></g>
<g><path style="opacity:0.871" fill="#8abd52" d="M 866.5,284.5 C 868.833,284.5 871.167,284.5 873.5,284.5C 874.098,291.188 874.931,297.854 876,304.5C 880.336,298.499 884.169,292.166 887.5,285.5C 889.833,284.167 892.167,284.167 894.5,285.5C 893.675,286.386 892.675,286.719 891.5,286.5C 890.618,293.742 889.285,300.908 887.5,308C 888.022,308.95 888.689,309.784 889.5,310.5C 886.5,311.833 883.5,311.833 880.5,310.5C 881.325,309.614 882.325,309.281 883.5,309.5C 884.669,304.166 885.502,298.832 886,293.5C 882.403,299.706 878.569,305.706 874.5,311.5C 873.914,311.291 873.414,310.957 873,310.5C 872.186,304.136 871.186,297.803 870,291.5C 868.961,297.03 867.794,302.53 866.5,308C 867.022,308.95 867.689,309.784 868.5,310.5C 866.167,311.833 863.833,311.833 861.5,310.5C 862.242,309.713 863.075,309.047 864,308.5C 865.5,301.664 867,294.831 868.5,288C 867.571,286.923 866.904,285.756 866.5,284.5 Z"/></g>
<g><path style="opacity:0.801" fill="#8abd53" d="M 947.5,309.5 C 941.648,311.632 935.648,311.965 929.5,310.5C 930.325,309.614 931.325,309.281 932.5,309.5C 933.574,302.463 934.907,295.463 936.5,288.5C 936.081,287.328 935.415,286.328 934.5,285.5C 939.584,284.11 944.584,284.277 949.5,286C 952.19,290.604 951.19,294.271 946.5,297C 951.41,300.65 951.744,304.817 947.5,309.5 Z M 940.5,286.5 C 948.49,287.278 949.49,290.444 943.5,296C 941.833,296.667 940.167,296.667 938.5,296C 939.61,292.951 940.277,289.784 940.5,286.5 Z M 938.5,298.5 C 942.779,297.454 945.445,298.954 946.5,303C 945.14,308.193 941.806,310.359 936.5,309.5C 936.911,305.779 937.578,302.112 938.5,298.5 Z"/></g>
<g><path style="opacity:0.824" fill="#8bbe52" d="M 947.5,309.5 C 948.675,309.719 949.675,309.386 950.5,308.5C 955.087,300.996 959.42,293.329 963.5,285.5C 964.325,284.614 965.325,284.281 966.5,284.5C 967.098,291.188 967.931,297.854 969,304.5C 969.212,306.78 970.045,308.78 971.5,310.5C 968.833,311.833 966.167,311.833 963.5,310.5C 964.415,309.672 965.081,308.672 965.5,307.5C 964.954,305.865 964.62,304.199 964.5,302.5C 958.737,300.974 955.07,302.974 953.5,308.5C 953.833,309.167 954.167,309.833 954.5,310.5C 953.333,310.833 952.167,311.167 951,311.5C 949.319,311.392 948.152,310.725 947.5,309.5 Z M 962.5,291.5 C 963.475,294.311 964.142,297.311 964.5,300.5C 962.396,300.799 960.396,300.466 958.5,299.5C 959.86,296.78 961.193,294.114 962.5,291.5 Z"/></g>
<g><path style="opacity:0.842" fill="#89bd53" d="M 975.5,284.5 C 982.167,284.5 988.833,284.5 995.5,284.5C 995.221,287.118 994.554,289.618 993.5,292C 992.668,292.688 992.002,292.521 991.5,291.5C 992.309,289.929 992.643,288.262 992.5,286.5C 990.533,286.261 988.699,286.594 987,287.5C 985.305,294.806 983.805,302.14 982.5,309.5C 983.978,309.238 985.311,309.571 986.5,310.5C 982.5,311.833 978.5,311.833 974.5,310.5C 975.689,309.571 977.022,309.238 978.5,309.5C 979.936,301.926 981.602,294.426 983.5,287C 981.833,286.333 980.167,286.333 978.5,287C 977.782,288.987 976.782,290.821 975.5,292.5C 974.795,289.911 974.795,287.244 975.5,284.5 Z"/></g>
<g><path style="opacity:0.855" fill="#8abd53" d="M 915.5,284.5 C 928.692,283.833 932.859,289.833 928,302.5C 925.274,308.531 920.607,311.865 914,312.5C 907.976,311.309 905.143,307.642 905.5,301.5C 905.595,293.778 908.928,288.111 915.5,284.5 Z M 917.5,286.5 C 925.121,286.946 927.621,290.946 925,298.5C 923.559,306.304 919.059,309.804 911.5,309C 907.897,299.98 909.897,292.48 917.5,286.5 Z"/></g>
<g><path style="opacity:0.872" fill="#8bbe52" d="M 573.5,284.5 C 577.991,284.659 582.324,284.825 586.5,285C 585.932,287.684 584.932,290.184 583.5,292.5C 579.889,284.827 575.389,284.493 570,291.5C 568.371,295.014 567.205,298.68 566.5,302.5C 567.511,309.459 571.178,311.292 577.5,308C 579.901,305.506 579.901,303.173 577.5,301C 580.167,300.333 582.833,300.333 585.5,301C 581.737,311.469 574.903,314.303 565,309.5C 560.994,298.844 563.828,290.511 573.5,284.5 Z"/></g>
<g><path style="opacity:0.878" fill="#8bbd52" d="M 510.5,284.5 C 515.103,284.501 519.436,284.834 523.5,285.5C 522.975,287.988 522.142,290.321 521,292.5C 517.147,284.9 512.481,284.567 507,291.5C 505.331,295.176 504.164,299.009 503.5,303C 504.335,309.039 507.668,311.039 513.5,309C 516.655,306.46 516.989,303.793 514.5,301C 517.167,300.333 519.833,300.333 522.5,301C 520.549,307.447 516.216,311.28 509.5,312.5C 502.944,311.714 499.944,308.047 500.5,301.5C 500.528,293.763 503.861,288.096 510.5,284.5 Z"/></g>
<g><path style="opacity:0.98" fill="#8abe52" d="M 166.5,300.5 C 183.408,299.741 193.075,307.741 195.5,324.5C 194.954,328.686 193.787,332.686 192,336.5C 175.196,354.305 158.029,371.805 140.5,389C 128.055,397.136 116.555,395.969 106,385.5C 100.41,376.35 100.077,367.017 105,357.5C 122.5,340 140,322.5 157.5,305C 160.437,303.199 163.437,301.699 166.5,300.5 Z M 168.5,308.5 C 157.641,316.685 147.641,326.018 138.5,336.5C 145.167,343.833 152.167,350.833 159.5,357.5C 167.819,349.681 175.986,341.681 184,333.5C 185.7,330.533 186.867,327.367 187.5,324C 185.832,313.168 179.498,308.002 168.5,308.5 Z"/></g>
</svg>
