<?xml version="1.0" encoding="UTF-8"?>
<!DOCTYPE svg PUBLIC "-//W3C//DTD SVG 1.1//EN" "http://www.w3.org/Graphics/SVG/1.1/DTD/svg11.dtd">
<svg xmlns="http://www.w3.org/2000/svg" version="1.1" width="1000px" height="320px" style="shape-rendering:geometricPrecision; text-rendering:geometricPrecision; image-rendering:optimizeQuality; fill-rule:evenodd; clip-rule:evenodd" xmlns:xlink="http://www.w3.org/1999/xlink">
<g><path style="opacity:0.998" fill="#89bd52" d="M 42.5,-0.5 C 71.8333,-0.5 101.167,-0.5 130.5,-0.5C 131.649,14.759 131.816,30.0923 131,45.5C 116.239,46.1628 101.406,46.4961 86.5,46.5C 71.5939,46.4961 56.7606,46.1628 42,45.5C 41.1839,30.0923 41.3505,14.759 42.5,-0.5 Z"/></g>
<g><path style="opacity:0.984" fill="#8abd53" d="M 155.5,319.5 C 112.5,319.5 69.5,319.5 26.5,319.5C 12.6312,316.799 4.13122,308.466 1,294.5C 0.0238586,236.135 0.357192,177.802 2,119.5C 5.70482,108.121 12.2048,98.6215 21.5,91C 29.2861,85.5487 36.7861,79.7154 44,73.5C 47.7572,68.4859 50.5905,62.9859 52.5,57C 75.8333,56.3333 99.1667,56.3333 122.5,57C 125.017,63.2011 128.183,69.0345 132,74.5C 141.987,82.4881 151.321,91.1548 160,100.5C 164.446,107.058 168.113,114.058 171,121.5C 172.65,178.455 172.984,235.455 172,292.5C 171.529,304.808 166.029,313.808 155.5,319.5 Z M 38.5,123.5 C 71.835,123.333 105.168,123.5 138.5,124C 141.295,125.793 143.795,127.96 146,130.5C 147.647,178.121 147.98,225.788 147,273.5C 145.734,277.784 143.234,281.284 139.5,284C 105.5,284.667 71.5,284.667 37.5,284C 35.3333,281.833 33.1667,279.667 31,277.5C 30.3333,228.5 30.3333,179.5 31,130.5C 33.3959,127.933 35.8959,125.6 38.5,123.5 Z M 82.5,144.5 C 85.3113,144.826 87.978,145.659 90.5,147C 96.1667,152.667 101.833,158.333 107.5,164C 102.652,169.015 97.6519,173.848 92.5,178.5C 85.8163,172.65 79.6497,166.317 74,159.5C 72.204,151.749 75.0374,146.749 82.5,144.5 Z M 54.5,177.5 C 60.077,177.371 64.2437,179.704 67,184.5C 67.4998,193.494 67.6664,202.494 67.5,211.5C 60.5,211.5 53.5,211.5 46.5,211.5C 46.3336,202.494 46.5002,193.494 47,184.5C 48.7424,181.254 51.2424,178.921 54.5,177.5 Z M 120.5,218.5 C 129.803,218.635 133.97,223.301 133,232.5C 127.725,239.944 121.558,246.611 114.5,252.5C 109.348,247.848 104.348,243.015 99.5,238C 106.119,230.873 113.119,224.373 120.5,218.5 Z"/></g>
<g><path style="opacity:0.953" fill="#08692d" d="M 262.5,98.5 C 263.822,98.33 264.989,98.6634 266,99.5C 280.333,135.167 294.667,170.833 309,206.5C 312.293,208.208 315.793,209.208 319.5,209.5C 319.384,212.86 319.051,216.193 318.5,219.5C 303.5,219.5 288.5,219.5 273.5,219.5C 273.5,216.167 273.5,212.833 273.5,209.5C 277.197,208.992 280.864,208.326 284.5,207.5C 281.996,199.49 278.996,191.657 275.5,184C 261.502,182.029 247.502,182.029 233.5,184C 230.531,191.74 227.864,199.574 225.5,207.5C 229.476,208.295 233.476,208.962 237.5,209.5C 237.384,212.86 237.051,216.193 236.5,219.5C 224.5,219.5 212.5,219.5 200.5,219.5C 200.5,216.167 200.5,212.833 200.5,209.5C 204.024,209.119 207.358,208.119 210.5,206.5C 223.931,173.373 237.265,140.207 250.5,107C 254.361,103.909 258.361,101.076 262.5,98.5 Z M 252.5,129.5 C 259.218,142.626 265.218,156.293 270.5,170.5C 259.515,171.666 248.515,171.832 237.5,171C 243.207,157.42 248.207,143.587 252.5,129.5 Z"/></g>
<g><path style="opacity:0.951" fill="#09692d" d="M 838.5,98.5 C 840.911,98.1367 842.411,99.1367 843,101.5C 857.069,136.54 871.236,171.54 885.5,206.5C 888.642,208.119 891.976,209.119 895.5,209.5C 895.74,212.579 895.407,215.579 894.5,218.5C 879.515,219.499 864.515,219.833 849.5,219.5C 849.5,216.167 849.5,212.833 849.5,209.5C 853.553,208.987 857.553,208.154 861.5,207C 858.204,199.573 855.038,192.073 852,184.5C 837.884,181.874 823.717,181.874 809.5,184.5C 806.636,191.757 803.97,199.09 801.5,206.5C 805.293,208.259 809.293,209.259 813.5,209.5C 813.784,212.777 813.451,215.943 812.5,219C 786.169,219.5 759.835,219.667 733.5,219.5C 732.949,216.193 732.616,212.86 732.5,209.5C 736.22,209.436 739.886,208.936 743.5,208C 732.711,194.209 721.544,180.709 710,167.5C 708.211,165.771 706.044,165.104 703.5,165.5C 703.324,179.518 703.657,193.518 704.5,207.5C 708.167,208.167 711.833,208.833 715.5,209.5C 715.5,212.833 715.5,216.167 715.5,219.5C 700.496,219.667 685.496,219.5 670.5,219C 669.549,215.943 669.216,212.777 669.5,209.5C 673.524,208.962 677.524,208.295 681.5,207.5C 682.833,176.167 682.833,144.833 681.5,113.5C 677.557,112.514 673.557,111.848 669.5,111.5C 669.5,108.167 669.5,104.833 669.5,101.5C 685.167,101.5 700.833,101.5 716.5,101.5C 716.543,104.587 716.71,107.587 717,110.5C 712.959,111.942 708.792,112.942 704.5,113.5C 703.442,127.815 703.275,142.148 704,156.5C 706.175,155.745 708.341,154.912 710.5,154C 723.318,140.348 736.318,126.848 749.5,113.5C 745.991,112.434 742.491,111.434 739,110.5C 738.223,107.571 738.39,104.737 739.5,102C 753.163,101.5 766.829,101.333 780.5,101.5C 780.5,104.833 780.5,108.167 780.5,111.5C 776.088,111.902 771.754,112.735 767.5,114C 753.833,127 740.167,140 726.5,153C 741.931,171.187 757.597,189.187 773.5,207C 778.081,209.032 782.581,208.865 787,206.5C 799.971,173.254 813.137,140.087 826.5,107C 830.361,103.909 834.361,101.076 838.5,98.5 Z M 829.5,129.5 C 835.686,143.217 841.352,157.217 846.5,171.5C 835.833,171.5 825.167,171.5 814.5,171.5C 819.104,157.355 824.104,143.355 829.5,129.5 Z"/></g>
<g><path style="opacity:0.954" fill="#08692d" d="M 893.5,100.5 C 926.877,101.498 960.21,101.832 993.5,101.5C 995.259,112.48 996.926,123.48 998.5,134.5C 994.548,135.272 990.548,135.605 986.5,135.5C 984.818,127.786 982.151,120.453 978.5,113.5C 970.637,112.179 962.803,112.179 955,113.5C 954.197,144.856 954.363,176.19 955.5,207.5C 960.874,207.887 966.207,208.554 971.5,209.5C 971.5,212.833 971.5,216.167 971.5,219.5C 953.167,219.5 934.833,219.5 916.5,219.5C 916.384,216.14 916.051,212.807 915.5,209.5C 921.142,208.646 926.809,207.98 932.5,207.5C 933.768,175.814 933.768,144.147 932.5,112.5C 924.389,112.065 916.389,112.565 908.5,114C 905.593,121.557 902.593,129.057 899.5,136.5C 896.557,135.756 893.557,135.256 890.5,135C 889.941,134.275 889.608,133.442 889.5,132.5C 891.162,121.871 892.495,111.204 893.5,100.5 Z"/></g>
<g><path style="opacity:0.957" fill="#09692d" d="M 326.5,101.5 C 343.833,101.5 361.167,101.5 378.5,101.5C 378.5,104.833 378.5,108.167 378.5,111.5C 372.864,111.911 367.364,112.911 362,114.5C 360.204,144.826 360.037,175.159 361.5,205.5C 374.521,206.999 387.521,206.832 400.5,205C 403.953,197.924 407.787,191.091 412,184.5C 415.572,185.544 419.072,186.711 422.5,188C 419.427,198.455 416.427,208.955 413.5,219.5C 384.582,219.543 355.582,219.543 326.5,219.5C 326.5,216.167 326.5,212.833 326.5,209.5C 330.524,208.962 334.524,208.295 338.5,207.5C 339.644,176.53 339.811,145.53 339,114.5C 335.056,112.639 330.889,111.639 326.5,111.5C 326.5,108.167 326.5,104.833 326.5,101.5 Z"/></g>
<g><path style="opacity:0.954" fill="#09692d" d="M 430.5,101.5 C 450.869,101.087 471.203,101.587 491.5,103C 512.967,107.474 522.467,120.641 520,142.5C 515.841,159.013 505.341,168.846 488.5,172C 480.522,173.737 472.522,173.904 464.5,172.5C 464.091,183.896 464.591,195.23 466,206.5C 471.088,207.765 476.254,208.765 481.5,209.5C 481.5,212.833 481.5,216.167 481.5,219.5C 464.82,219.833 448.153,219.499 431.5,218.5C 430.593,215.579 430.26,212.579 430.5,209.5C 434.5,208.833 438.5,208.167 442.5,207.5C 443.798,176.162 443.798,144.829 442.5,113.5C 438.557,112.514 434.557,111.848 430.5,111.5C 430.5,108.167 430.5,104.833 430.5,101.5 Z M 464.5,112.5 C 485.308,109.202 496.641,117.869 498.5,138.5C 497.714,153.453 489.881,161.12 475,161.5C 471.477,161.293 467.977,160.96 464.5,160.5C 464.5,144.5 464.5,128.5 464.5,112.5 Z"/></g>
<g><path style="opacity:0.96" fill="#09692d" d="M 535.5,101.5 C 550.833,101.5 566.167,101.5 581.5,101.5C 581.877,104.525 582.044,107.525 582,110.5C 577.981,112.046 573.815,113.046 569.5,113.5C 569.04,137.219 569.54,160.886 571,184.5C 574.949,198.492 584.283,205.492 599,205.5C 615.769,203.73 624.769,194.397 626,177.5C 626.738,156.153 626.571,134.82 625.5,113.5C 621.116,112.99 616.782,112.157 612.5,111C 611.549,107.943 611.216,104.777 611.5,101.5C 625.5,101.5 639.5,101.5 653.5,101.5C 653.5,104.833 653.5,108.167 653.5,111.5C 649.5,112.167 645.5,112.833 641.5,113.5C 640.849,136.827 640.349,160.16 640,183.5C 635.628,208.027 620.962,220.694 596,221.5C 567.54,221.619 551.54,207.619 548,179.5C 547.667,157.833 547.333,136.167 547,114.5C 543.048,113.012 539.048,111.679 535,110.5C 534.264,107.408 534.431,104.408 535.5,101.5 Z"/></g>
<g><path style="opacity:0.977" fill="#89bd53" d="M 81.5,138.5 C 86.1271,138.573 90.4604,139.74 94.5,142C 108.064,154.895 120.897,168.395 133,182.5C 135.78,195.967 130.447,203.633 117,205.5C 113.617,205.483 110.45,204.65 107.5,203C 95,190.5 82.5,178 70,165.5C 64.2663,152.159 68.0996,143.159 81.5,138.5 Z M 82.5,144.5 C 75.0374,146.749 72.204,151.749 74,159.5C 79.6497,166.317 85.8163,172.65 92.5,178.5C 97.6519,173.848 102.652,169.015 107.5,164C 101.833,158.333 96.1667,152.667 90.5,147C 87.978,145.659 85.3113,144.826 82.5,144.5 Z"/></g>
<g><path style="opacity:0.977" fill="#8abe52" d="M 53.5,171.5 C 63.0111,170.83 69.5111,174.83 73,183.5C 73.6667,202.5 73.6667,221.5 73,240.5C 70.4734,248.11 65.1401,252.11 57,252.5C 49.3978,252.039 44.0645,248.373 41,241.5C 40.3333,221.833 40.3333,202.167 41,182.5C 43.5048,176.822 47.6714,173.155 53.5,171.5 Z M 54.5,177.5 C 51.2424,178.921 48.7424,181.254 47,184.5C 46.5002,193.494 46.3336,202.494 46.5,211.5C 53.5,211.5 60.5,211.5 67.5,211.5C 67.6664,202.494 67.4998,193.494 67,184.5C 64.2437,179.704 60.077,177.371 54.5,177.5 Z"/></g>
<g><path style="opacity:0.982" fill="#8abd53" d="M 118.5,212.5 C 133.858,212.022 140.691,219.355 139,234.5C 138,236.5 137,238.5 136,240.5C 124.167,252.333 112.333,264.167 100.5,276C 87.32,282.721 78.1533,279.221 73,265.5C 72.3891,261.318 73.0558,257.318 75,253.5C 87.8333,240.667 100.667,227.833 113.5,215C 115.315,214.243 116.981,213.41 118.5,212.5 Z M 120.5,218.5 C 113.119,224.373 106.119,230.873 99.5,238C 104.348,243.015 109.348,247.848 114.5,252.5C 121.558,246.611 127.725,239.944 133,232.5C 133.97,223.301 129.803,218.635 120.5,218.5 Z"/></g>
</svg>
